<?xml version="1.0" encoding="utf-8"?>
<!-- Generator: Adobe Illustrator 16.0.0, SVG Export Plug-In . SVG Version: 6.00 Build 0)  -->
<!DOCTYPE svg PUBLIC "-//W3C//DTD SVG 1.1//EN" "http://www.w3.org/Graphics/SVG/1.1/DTD/svg11.dtd">
<svg version="1.1" id="Layer_1" xmlns="http://www.w3.org/2000/svg" xmlns:xlink="http://www.w3.org/1999/xlink" x="0px" y="0px"
	 width="120px" height="120px" viewBox="0 0 120 120" enable-background="new 0 0 120 120" xml:space="preserve">
<g>
	<polygon fill="#FFFFFF" points="37.201,21.25 28.974,16.5 28.974,81.465 37.25,76.688 37.25,21.278 37.25,21.221 	"/>
	<polygon fill="#FFFFFF" points="19.583,21.278 19.583,21.221 19.632,21.25 27.86,16.5 27.86,83.396 59.427,65.171 59.427,74.727 
		19.583,97.748 19.583,97.729 19.55,97.748 	"/>
	<polygon fill="#FFFFFF" points="82.797,21.25 91.027,16.5 91.027,81.465 82.749,76.688 82.749,21.278 82.749,21.221 	"/>
	<polygon fill="#FFFFFF" points="100.417,21.278 100.417,21.221 100.37,21.25 92.139,16.5 92.139,83.396 60.574,65.171 
		60.574,74.727 100.417,97.748 100.417,97.729 100.449,97.748 	"/>
	<polygon fill="#FFFFFF" points="59.999,75.531 19.838,98.723 28.114,103.5 59.999,85.092 91.883,103.5 100.16,98.723 	"/>
</g>
</svg>
