<?xml version="1.0" encoding="utf-8"?>
<!-- Generator: Adobe Illustrator 16.0.0, SVG Export Plug-In . SVG Version: 6.00 Build 0)  -->
<!DOCTYPE svg PUBLIC "-//W3C//DTD SVG 1.1//EN" "http://www.w3.org/Graphics/SVG/1.1/DTD/svg11.dtd">
<svg version="1.1" id="Layer_1" xmlns="http://www.w3.org/2000/svg" xmlns:xlink="http://www.w3.org/1999/xlink" x="0px" y="0px"
	 width="120px" height="120px" viewBox="0 0 120 120" enable-background="new 0 0 120 120" xml:space="preserve">
<g>
	<path fill="#FFFFFF" d="M95.82,65.995c-2.596,15.636-15.187,27.894-30.98,29.999V65.995h-9.682v29.999
		c-15.795-2.105-28.382-14.361-30.979-29.999h-9.79C17.326,88.566,36.625,106,60,106c23.371,0,42.674-17.434,45.611-40.005H95.82z"
		/>
	<path fill="#FFFFFF" d="M64.84,14.253C63.25,14.086,61.635,14,60,14c-22.489,0-41.208,16.14-45.207,37.467h9.903
		c3.472-14.412,15.531-25.473,30.461-27.464v29.885H14.405C14.139,55.89,14,57.928,14,60c0,1.201,0.047,2.393,0.137,3.576h50.707
		V53.89L64.84,14.253z"/>
	<path fill="#FFFFFF" d="M67.264,14.575v9.841c14.61,2.964,26.035,14.701,28.538,29.475H67.264v9.685h28.875h9.725
		C105.953,62.393,106,61.201,106,60C106,37.066,89.215,18.055,67.264,14.575z"/>
</g>
</svg>
