<?xml version="1.0" encoding="utf-8"?>
<!-- Generator: Adobe Illustrator 16.0.0, SVG Export Plug-In . SVG Version: 6.00 Build 0)  -->
<!DOCTYPE svg PUBLIC "-//W3C//DTD SVG 1.1//EN" "http://www.w3.org/Graphics/SVG/1.1/DTD/svg11.dtd">
<svg version="1.1" id="Layer_1" xmlns="http://www.w3.org/2000/svg" xmlns:xlink="http://www.w3.org/1999/xlink" x="0px" y="0px"
	 width="120px" height="120px" viewBox="0 0 120 120" enable-background="new 0 0 120 120" xml:space="preserve">
<g>
	<path d="M91.308,76.19h-4.021l2.844-2.844l5.838-5.842l-0.153-0.377c-1.703-3.257-3.802-6.273-6.238-8.985L76.315,71.405
		l-0.732,0.733c-2.251,2.532-2.998,6.224-1.614,9.57c1.385,3.339,4.52,5.421,7.901,5.62h1.046l17.846,0.004H111
		c0-3.821-0.393-7.545-1.138-11.143H99.326H91.308L91.308,76.19z"/>
	<path d="M77.649,49.531l-5.666,5.667l-2.846,2.844V54.02v-8.26l-0.376-0.156c-3.509-1.102-7.126-1.748-10.764-1.942v18.757v1.037
		c0.199,3.387,2.281,6.526,5.625,7.906c3.343,1.385,7.032,0.642,9.566-1.609l0.737-0.741l12.62-12.618l8.078-8.081
		c-2.668-2.618-5.598-4.968-8.755-7l-0.561,0.561L77.649,49.531z"/>
	<path d="M43.473,46.003v8.016v4.022l-2.845-2.845l-5.84-5.84l-0.377,0.157c-3.257,1.702-6.274,3.803-8.985,6.237l13.262,13.264
		l0.733,0.732c2.534,2.251,6.227,2.997,9.568,1.614c3.341-1.384,5.424-4.521,5.624-7.904v-1.044V44.567V32.666
		c-3.826,0.115-7.552,0.625-11.141,1.487v1.018L43.473,46.003z"/>
	<path d="M16.812,67.676l5.669,5.67l2.844,2.843h-4.023l-8.26,0.002l-0.157,0.375c-1.099,3.51-1.747,7.126-1.942,10.768
		l18.755,0.002l1.04-0.002c3.384-0.199,6.524-2.281,7.907-5.624c1.384-3.345,0.639-7.034-1.613-9.564l-0.739-0.741l-12.617-12.62
		l-8.03-8.03C13.13,53.546,10.901,56.598,9,59.865l0.153,0.156L16.812,67.676z"/>
</g>
</svg>
