<?xml version="1.0" encoding="utf-8"?>
<!-- Generator: Adobe Illustrator 16.0.0, SVG Export Plug-In . SVG Version: 6.00 Build 0)  -->
<!DOCTYPE svg PUBLIC "-//W3C//DTD SVG 1.1//EN" "http://www.w3.org/Graphics/SVG/1.1/DTD/svg11.dtd">
<svg version="1.1" id="Layer_1" xmlns="http://www.w3.org/2000/svg" xmlns:xlink="http://www.w3.org/1999/xlink" x="0px" y="0px"
	 width="120px" height="120px" viewBox="0 0 120 120" enable-background="new 0 0 120 120" xml:space="preserve">
<g>
	<path fill="#FFFFFF" d="M45.593,29.492v33.898c0,4.68-3.794,8.475-8.473,8.475c-4.68,0-8.477-3.795-8.477-8.475v-8.473h-8.475
		v8.473c0,9.362,7.588,16.948,16.95,16.948c9.359,0,16.949-7.588,16.949-16.948V29.492H45.593z"/>
	<path fill="#FFFFFF" d="M91.355,29.492v33.898c0,4.68-3.795,8.475-8.477,8.475c-4.678,0-8.473-3.795-8.473-8.475v-8.473H65.93
		v8.473c0,9.362,7.586,16.948,16.946,16.948c9.358,0,16.952-7.588,16.952-16.948V29.492H91.355z"/>
	<path fill="#FFFFFF" d="M101.521,29.492v33.898c0,10.297-8.35,18.645-18.644,18.645c-10.284,0-18.624-8.328-18.644-18.612
		c0-0.011,0.002-0.022,0.002-0.028h-0.002V29.492h-8.473v33.898c0,0.014,0,0.021,0,0.031c-0.018,10.282-8.357,18.609-18.643,18.609
		c-10.297,0-18.645-8.352-18.645-18.645V29.492H10v33.898c0,14.978,12.141,27.118,27.12,27.118c9.617,0,18.065-5.01,22.88-12.562
		c4.814,7.547,13.264,12.562,22.881,12.562C97.857,90.509,110,78.367,110,63.391V29.492H101.521z"/>
</g>
</svg>
