<?xml version="1.0" encoding="utf-8"?>
<!-- Generator: Adobe Illustrator 16.0.0, SVG Export Plug-In . SVG Version: 6.00 Build 0)  -->
<!DOCTYPE svg PUBLIC "-//W3C//DTD SVG 1.1//EN" "http://www.w3.org/Graphics/SVG/1.1/DTD/svg11.dtd">
<svg version="1.1" id="Layer_1" xmlns="http://www.w3.org/2000/svg" xmlns:xlink="http://www.w3.org/1999/xlink" x="0px" y="0px"
	 width="120px" height="120px" viewBox="0 0 120 120" enable-background="new 0 0 120 120" xml:space="preserve">
<g>
	<path fill="#FFFFFF" d="M32.536,81.914L47.05,67.4l-3.922-3.926L28.613,77.993c-2.168,2.164-5.68,2.164-7.846,0
		c-2.166-2.168-2.166-5.681,0-7.849l0,0l2.746-2.746l-3.925-3.924l-2.745,2.746l0,0c-4.334,4.334-4.334,11.359,0,15.691
		C21.177,86.248,28.202,86.248,32.536,81.914z"/>
	<path fill="#FFFFFF" d="M70.591,90.938l-3.924-3.924L52.15,101.529c-1.804,1.802-4.536,2.101-6.654,0.897
		c-0.425-0.239-0.83-0.536-1.193-0.897c-2.166-2.168-2.167-5.684,0-7.848l0,0l2.746-2.744l-3.923-3.927l-2.746,2.745v0.002
		c-4.333,4.333-4.333,11.359,0,15.692c0.354,0.354,0.73,0.678,1.119,0.976c4.351,3.325,10.596,3.001,14.574-0.976L70.591,90.938z"/>
	<polygon fill="#FFFFFF" points="54.896,96.43 58.819,92.508 41.558,75.245 37.636,79.169 	"/>
	<polygon fill="#FFFFFF" points="94.127,67.398 90.203,63.477 87.891,65.789 75.689,77.993 72.943,80.736 76.866,84.659 
		79.609,81.914 91.814,69.711 	"/>
	<polygon fill="#FFFFFF" points="70.591,43.86 66.667,39.937 49.404,57.199 53.328,61.125 	"/>
	
		<rect x="59.562" y="59.526" transform="matrix(-0.7071 -0.7071 0.7071 -0.7071 78.4583 157.0984)" fill="#FFFFFF" width="24.41" height="5.546"/>
	<path fill="#FFFFFF" d="M58.805,68.951L41.572,51.722c-0.102,0.083-0.2,0.172-0.295,0.267l-3.643,3.642l17.262,17.26L58.805,68.951
		z"/>
	<path fill="#FFFFFF" d="M61.175,79.169l14.515,14.515c2.168,2.164,2.168,5.682,0,7.849c-0.071,0.069-0.153,0.139-0.23,0.209
		c-2.176,1.95-5.521,1.885-7.613-0.209L65.1,98.785l-3.924,3.924l2.745,2.747c4.263,4.258,11.12,4.323,15.466,0.212
		c0.076-0.068,0.153-0.141,0.229-0.212c4.33-4.334,4.33-11.358,0-15.692l-14.5-14.503L61.175,79.169z"/>
	<path fill="#FFFFFF" d="M35.267,45.415l-2.73-2.731c-2.168-2.167-2.168-5.68,0-7.846c2.168-2.167,5.679-2.167,7.844,0
		l14.516,14.515l3.922-3.922L44.304,30.915c-4.333-4.335-11.358-4.335-15.69,0c-4.333,4.333-4.333,11.357,0,15.692l2.744,2.745
		l3.644-3.643C35.095,45.615,35.184,45.518,35.267,45.415z"/>
	
		<rect x="72.71" y="27.555" transform="matrix(-0.7071 0.7071 -0.7071 -0.7071 158.3555 -4.9346)" fill="#FFFFFF" width="14.98" height="5.547"/>
	
		<rect x="24.77" y="49.151" transform="matrix(-0.7071 0.7071 -0.7071 -0.7071 96.5741 63.8502)" fill="#FFFFFF" width="20.586" height="5.55"/>
	
		<rect x="48.31" y="72.688" transform="matrix(-0.7071 0.7071 -0.7071 -0.7071 153.3979 87.3843)" fill="#FFFFFF" width="20.582" height="5.548"/>
	
		<rect x="6.334" y="56.978" transform="matrix(0.7071 0.7071 -0.7071 0.7071 48.7374 1.8424)" fill="#FFFFFF" width="31.622" height="5.549"/>
	
		<rect x="96.25" y="51.071" transform="matrix(-0.7071 0.7071 -0.7071 -0.7071 215.1666 18.5601)" fill="#FFFFFF" width="14.979" height="5.546"/>
	<path fill="#FFFFFF" d="M44.306,15.223l54.922,54.921c2.019,2.021,2.152,5.209,0.405,7.39c-0.126,0.157-0.26,0.31-0.405,0.458
		c-2.168,2.166-5.683,2.162-7.848,0l-2.747-2.748l-3.923,3.923l2.746,2.748c4.331,4.332,11.357,4.332,15.691,0
		c0.146-0.147,0.287-0.298,0.422-0.448c3.906-4.357,3.766-11.058-0.422-15.242L48.229,11.3L44.306,15.223z"/>
</g>
</svg>
