<?xml version="1.0" encoding="utf-8"?>
<!-- Generator: Adobe Illustrator 16.0.0, SVG Export Plug-In . SVG Version: 6.00 Build 0)  -->
<!DOCTYPE svg PUBLIC "-//W3C//DTD SVG 1.1//EN" "http://www.w3.org/Graphics/SVG/1.1/DTD/svg11.dtd">
<svg version="1.1" id="Layer_1" xmlns="http://www.w3.org/2000/svg" xmlns:xlink="http://www.w3.org/1999/xlink" x="0px" y="0px"
	 width="120px" height="120px" viewBox="0 0 120 120" enable-background="new 0 0 120 120" xml:space="preserve">
<g>
	<path d="M32.536,81.914L47.05,67.4l-3.922-3.926L28.613,77.993c-2.168,2.164-5.68,2.164-7.846,0c-2.166-2.168-2.166-5.681,0-7.849
		l0,0l2.746-2.746l-3.925-3.924l-2.745,2.746l0,0c-4.334,4.334-4.334,11.36,0,15.692C21.177,86.248,28.202,86.248,32.536,81.914z"/>
	<path d="M70.591,90.938l-3.924-3.924L52.15,101.529c-1.804,1.802-4.536,2.101-6.654,0.898c-0.425-0.24-0.83-0.537-1.193-0.898
		c-2.166-2.168-2.167-5.684,0-7.848l0,0l2.746-2.744l-3.923-3.926l-2.746,2.745v0.002c-4.333,4.333-4.333,11.359,0,15.692
		c0.354,0.354,0.73,0.678,1.119,0.976c4.351,3.325,10.596,3.001,14.574-0.976L70.591,90.938z"/>
	<polygon points="54.896,96.43 58.819,92.508 41.558,75.245 37.636,79.169 	"/>
	<polygon points="94.127,67.398 90.203,63.477 87.891,65.789 75.689,77.993 72.943,80.736 76.866,84.659 79.609,81.914 
		91.814,69.711 	"/>
	<polygon points="70.591,43.86 66.667,39.937 49.404,57.199 53.328,61.125 	"/>
	<rect x="59.564" y="59.526" transform="matrix(0.7071 0.7071 -0.7071 0.7071 65.0703 -32.5007)" width="24.41" height="5.547"/>
	<path d="M58.805,68.951L41.572,51.722c-0.102,0.083-0.2,0.172-0.295,0.267l-3.643,3.642l17.262,17.26L58.805,68.951z"/>
	<path d="M61.175,79.169l14.515,14.515c2.168,2.164,2.168,5.681,0,7.848c-0.072,0.07-0.154,0.139-0.231,0.209
		c-2.176,1.951-5.521,1.885-7.614-0.209l-2.746-2.747l-3.923,3.924l2.745,2.747c4.262,4.258,11.12,4.324,15.465,0.212
		c0.077-0.069,0.154-0.14,0.229-0.212c4.33-4.334,4.33-11.359,0-15.693l-14.5-14.502L61.175,79.169z"/>
	<path d="M35.267,45.415l-2.73-2.731c-2.168-2.167-2.168-5.68,0-7.846c2.168-2.167,5.679-2.167,7.844,0l14.516,14.515l3.922-3.922
		L44.304,30.915c-4.333-4.335-11.358-4.335-15.69,0c-4.333,4.333-4.333,11.357,0,15.692l2.744,2.745l3.644-3.643
		C35.095,45.615,35.184,45.518,35.267,45.415z"/>
	<rect x="72.71" y="27.554" transform="matrix(0.7071 -0.7071 0.7071 0.7071 2.0459 65.593)" width="14.98" height="5.547"/>
	<rect x="24.771" y="49.151" transform="matrix(0.7071 -0.7071 0.7071 0.7071 -26.4473 40.003)" width="20.586" height="5.55"/>
	<rect x="48.31" y="72.688" transform="matrix(0.7071 -0.7071 0.7071 0.7071 -36.1955 63.5402)" width="20.583" height="5.548"/>
	<rect x="6.333" y="56.978" transform="matrix(-0.7071 -0.7071 0.7071 -0.7071 -4.4477 117.6621)" width="31.623" height="5.549"/>
	<rect x="96.252" y="51.076" transform="matrix(0.7071 -0.7071 0.7071 0.7071 -7.6933 89.1233)" width="14.98" height="5.546"/>
	<path d="M44.306,15.223l54.922,54.921c2.018,2.02,2.152,5.209,0.405,7.389c-0.126,0.158-0.26,0.31-0.405,0.458
		c-2.168,2.166-5.683,2.163-7.848,0l-2.747-2.748l-3.923,3.923l2.746,2.748c4.331,4.332,11.357,4.332,15.691,0
		c0.146-0.148,0.287-0.298,0.422-0.448c3.906-4.358,3.766-11.058-0.422-15.243L48.229,11.3L44.306,15.223z"/>
</g>
</svg>
