<?xml version="1.0" encoding="utf-8"?>
<!-- Generator: Adobe Illustrator 19.2.1, SVG Export Plug-In . SVG Version: 6.00 Build 0)  -->
<svg version="1.1" id="Layer_1" xmlns="http://www.w3.org/2000/svg" xmlns:xlink="http://www.w3.org/1999/xlink" x="0px" y="0px"
	 viewBox="0 0 120 120" style="enable-background:new 0 0 120 120;" xml:space="preserve">
<g>
	<path d="M54.7,16.2L54.7,16.2c-0.1,0-0.2,0-0.2,0c-0.1,0-0.3,0-0.4,0c-0.2,0-0.5,0.1-0.7,0.1c-0.1,0-0.3,0-0.4,0.1
		c-0.2,0-0.5,0.1-0.7,0.1c-0.1,0-0.3,0-0.4,0.1c-0.2,0-0.5,0.1-0.7,0.1c-0.1,0-0.2,0-0.4,0.1c-0.3,0-0.5,0.1-0.8,0.2
		c-0.1,0-0.2,0-0.3,0.1c-0.3,0.1-0.5,0.1-0.8,0.2c-0.1,0-0.2,0.1-0.3,0.1c-0.3,0.1-0.5,0.1-0.8,0.2c-0.1,0-0.2,0.1-0.3,0.1
		c-0.3,0.1-0.5,0.2-0.8,0.2c-0.1,0-0.2,0-0.2,0.1c-0.3,0.1-0.6,0.2-0.8,0.3c-0.1,0-0.1,0-0.2,0.1c-0.3,0.1-0.6,0.2-0.9,0.3
		c-0.1,0-0.1,0-0.2,0.1c-0.3,0.1-0.6,0.2-0.9,0.3c0,0-0.1,0-0.1,0c-0.3,0.1-0.6,0.2-0.9,0.4c0,0,0,0-0.1,0c-0.3,0.1-0.7,0.3-1,0.4
		c0,0,0,0,0,0v9.8c4-2.4,8.6-4,13.5-4.6v70c-1.6-0.2-3.2-0.5-4.7-0.9V72.6h-8.8v17.8v9.8c0,0,0,0,0,0c0.3,0.2,0.7,0.3,1,0.4
		c0,0,0.1,0,0.1,0c0.3,0.1,0.6,0.3,0.9,0.4c0,0,0.1,0,0.1,0.1c0.3,0.1,0.6,0.2,0.9,0.3c0.1,0,0.1,0,0.2,0.1c0.3,0.1,0.6,0.2,0.9,0.3
		c0.1,0,0.1,0,0.2,0.1c0.3,0.1,0.6,0.2,0.8,0.3c0.1,0,0.2,0.1,0.2,0.1c0.3,0.1,0.5,0.2,0.8,0.2c0.1,0,0.2,0.1,0.3,0.1
		c0.3,0.1,0.5,0.1,0.8,0.2c0.1,0,0.2,0.1,0.3,0.1c0.3,0.1,0.5,0.1,0.8,0.2c0.1,0,0.2,0.1,0.3,0.1c0,0,0,0,0.1,0l0,0
		c0.2,0.1,0.5,0.1,0.7,0.1c0.1,0,0.2,0,0.4,0.1c0.2,0,0.5,0.1,0.7,0.1c0.1,0,0.3,0,0.4,0.1c0.2,0,0.5,0.1,0.7,0.1
		c0.1,0,0.3,0,0.4,0.1c0.2,0,0.5,0.1,0.7,0.1c0.1,0,0.3,0,0.4,0.1c0.1,0,0.1,0,0.2,0v0c1.4,0.1,2.9,0.2,4.4,0.2s2.9-0.1,4.4-0.2V95
		V25v-8.8C62,16.1,60.6,16,59.1,16C57.6,16,56.1,16.1,54.7,16.2z"/>
	<path d="M30,27c-5.5,4.9-9.8,11.1-12.4,18.2l8.4,2.5c1-2.7,2.4-5.2,4-7.6v40c-1.6-2.3-2.9-4.7-3.9-7.4h-9.2c2.4,8,7,15,13.1,20.4v0
		c2.7,2.3,5.6,4.4,8.8,6V88.9V31.1V20.9C35.7,22.6,32.7,24.6,30,27L30,27L30,27L30,27z"/>
	<path d="M103.1,58.8c0-0.1,0-0.3,0-0.4c0-0.3,0-0.5,0-0.8c0-0.2,0-0.3,0-0.5c0-0.2,0-0.5,0-0.7c0-0.2,0-0.3,0-0.5
		c0-0.2,0-0.4-0.1-0.7c0-0.2,0-0.3-0.1-0.5c0-0.2-0.1-0.4-0.1-0.6c0-0.2,0-0.3-0.1-0.5c0-0.2-0.1-0.4-0.1-0.6c0-0.2-0.1-0.3-0.1-0.5
		c0-0.2-0.1-0.4-0.1-0.6c0-0.2-0.1-0.3-0.1-0.5c0-0.2-0.1-0.4-0.1-0.6c0-0.2-0.1-0.3-0.1-0.5c-0.1-0.2-0.1-0.4-0.1-0.6
		c0-0.2-0.1-0.3-0.1-0.5c-0.1-0.2-0.1-0.4-0.2-0.6c0-0.1-0.1-0.3-0.1-0.4c-0.1-0.2-0.1-0.4-0.2-0.6c0-0.1-0.1-0.3-0.1-0.4
		c-0.1-0.2-0.1-0.4-0.2-0.6c0-0.1-0.1-0.3-0.1-0.4c-0.1-0.2-0.1-0.4-0.2-0.6c-0.1-0.1-0.1-0.3-0.1-0.4c-0.1-0.2-0.2-0.4-0.2-0.6
		c0-0.1-0.1-0.3-0.1-0.4c-0.1-0.2-0.2-0.4-0.3-0.7c0-0.1-0.1-0.2-0.1-0.4c-0.1-0.2-0.2-0.4-0.3-0.7c0-0.1-0.1-0.2-0.1-0.3
		c-0.1-0.2-0.2-0.5-0.3-0.7c0-0.1-0.1-0.2-0.1-0.3c-0.1-0.2-0.2-0.5-0.3-0.7c0-0.1-0.1-0.2-0.1-0.3c-0.1-0.3-0.3-0.5-0.4-0.8
		c0-0.1-0.1-0.1-0.1-0.2c-0.1-0.3-0.3-0.5-0.5-0.8c0,0,0-0.1-0.1-0.1c-0.2-0.3-0.4-0.6-0.5-0.9c0,0,0,0,0,0
		c-1.3-2.2-2.9-4.3-4.5-6.2c0,0,0,0,0,0c-0.2-0.3-0.5-0.5-0.7-0.8c0,0,0,0-0.1-0.1c-0.2-0.2-0.5-0.5-0.7-0.7c0,0-0.1-0.1-0.1-0.1
		c-0.2-0.2-0.4-0.5-0.7-0.7c0,0-0.1-0.1-0.1-0.1c-0.2-0.2-0.4-0.4-0.7-0.6c0,0,0,0,0,0l-6,6.4c6.9,6.4,11.1,15.6,11.1,25.7
		c0,2.7-0.3,5.4-0.9,7.9L82.6,41.6l-8,29.9V18.8c-2.8-1.1-5.8-1.8-8.8-2.3v78.1v8.9c0.3,0,0.6-0.1,0.9-0.1c0.2,0,0.3-0.1,0.5-0.1
		c0.1,0,0.2-0.1,0.4-0.1c0.2,0,0.4-0.1,0.7-0.1c0,0,0.1,0,0.1,0c0.3-0.1,0.5-0.1,0.8-0.2c2-0.5,4-1.1,6-1.9l8.8-33.1l8.5,20.7
		c2.3-2.7,4.3-5.6,5.9-8.8c0.2-0.4,0.4-0.7,0.5-1.1c0,0,0-0.1,0.1-0.1c0.2-0.3,0.3-0.6,0.4-1c0-0.1,0.1-0.1,0.1-0.2
		c0.1-0.3,0.3-0.7,0.4-1c0,0,0-0.1,0.1-0.1c0.5-1.1,0.9-2.3,1.2-3.5c0-0.1,0-0.1,0.1-0.2c0.1-0.3,0.2-0.6,0.3-1
		c0-0.1,0.1-0.2,0.1-0.3c0.1-0.3,0.2-0.6,0.2-0.9c0-0.1,0.1-0.2,0.1-0.3c0.1-0.3,0.1-0.6,0.2-0.9c0-0.1,0-0.2,0.1-0.3
		c0.1-0.4,0.2-0.8,0.2-1.2c0,0,0,0,0,0c0.1-0.4,0.1-0.8,0.2-1.2c0-0.1,0-0.2,0-0.3c0-0.3,0.1-0.6,0.1-1c0-0.1,0-0.3,0-0.4
		c0-0.3,0.1-0.5,0.1-0.8c0-0.2,0-0.3,0-0.5c0-0.3,0-0.5,0.1-0.8c0-0.1,0-0.3,0-0.5c0-0.3,0-0.6,0-0.8c0-0.1,0-0.3,0-0.4
		c0-0.4,0-0.8,0-1.2C103.1,59.6,103.1,59.2,103.1,58.8z"/>
</g>
</svg>
