<?xml version="1.0" encoding="utf-8"?>
<!-- Generator: Adobe Illustrator 16.0.0, SVG Export Plug-In . SVG Version: 6.00 Build 0)  -->
<!DOCTYPE svg PUBLIC "-//W3C//DTD SVG 1.1//EN" "http://www.w3.org/Graphics/SVG/1.1/DTD/svg11.dtd">
<svg version="1.1" id="Layer_1" xmlns="http://www.w3.org/2000/svg" xmlns:xlink="http://www.w3.org/1999/xlink" x="0px" y="0px"
	 width="120px" height="120px" viewBox="0 0 120 120" enable-background="new 0 0 120 120" xml:space="preserve">
<polygon fill="#FFFFFF" points="19.5,19.5 19.5,28.5 37.5,28.5 37.5,45.75 28.5,45.75 28.5,37.5 19.5,37.5 19.5,55.5 46.5,55.5 
	46.5,19.5 "/>
<polygon fill="#FFFFFF" points="19.5,64.5 19.5,73.5 37.5,73.5 37.5,91.5 28.5,91.5 28.5,82.5 19.5,82.5 19.5,100.5 46.5,100.5 
	46.5,64.5 "/>
<polygon fill="#FFFFFF" points="91.5,19.5 91.5,91.5 82.5,91.5 82.5,19.5 73.5,19.5 73.5,91.5 64.5,91.5 64.5,19.5 55.5,19.5 
	55.5,100.5 100.5,100.5 100.5,19.5 "/>
</svg>
