<?xml version="1.0" encoding="utf-8"?>
<!-- Generator: Adobe Illustrator 16.0.0, SVG Export Plug-In . SVG Version: 6.00 Build 0)  -->
<!DOCTYPE svg PUBLIC "-//W3C//DTD SVG 1.1//EN" "http://www.w3.org/Graphics/SVG/1.1/DTD/svg11.dtd">
<svg version="1.1" id="Layer_1" xmlns="http://www.w3.org/2000/svg" xmlns:xlink="http://www.w3.org/1999/xlink" x="0px" y="0px"
	 width="120px" height="120px" viewBox="0 0 120 120" enable-background="new 0 0 120 120" xml:space="preserve">
<g>
	<path d="M37.563,91.788L37.563,91.788c-0.002-0.002-0.004-0.004-0.004-0.004c-0.306-0.22-0.609-0.437-0.91-0.662
		c-0.015-0.017-0.032-0.022-0.046-0.036c-0.27-0.204-0.536-0.41-0.798-0.618c-0.062-0.045-0.12-0.097-0.181-0.146
		c-0.223-0.18-0.445-0.363-0.663-0.545c-0.065-0.057-0.13-0.11-0.191-0.16c-0.23-0.197-0.459-0.393-0.685-0.598
		c-0.043-0.035-0.082-0.074-0.123-0.108c-0.543-0.491-1.07-0.998-1.583-1.513c-0.044-0.045-0.084-0.086-0.127-0.129
		c-0.208-0.213-0.416-0.433-0.619-0.647c-0.061-0.063-0.114-0.122-0.174-0.188c-0.192-0.205-0.386-0.42-0.571-0.632
		c-0.052-0.06-0.107-0.112-0.157-0.176c-0.225-0.251-0.445-0.515-0.663-0.774c-0.008-0.012-0.02-0.021-0.027-0.029
		c-0.241-0.29-0.473-0.578-0.702-0.877c-0.02-0.021-0.034-0.041-0.049-0.065c-0.202-0.256-0.398-0.519-0.594-0.78
		c-0.051-0.067-0.103-0.141-0.155-0.207c-0.161-0.223-0.322-0.445-0.479-0.672c-0.053-0.072-0.11-0.156-0.16-0.238
		c-0.161-0.234-0.321-0.469-0.479-0.707c-0.042-0.062-0.08-0.115-0.119-0.187c-0.392-0.604-0.769-1.218-1.127-1.849
		c-0.04-0.068-0.079-0.143-0.118-0.211c-0.134-0.24-0.268-0.481-0.399-0.729c-0.049-0.092-0.098-0.186-0.151-0.279
		c-0.118-0.23-0.238-0.467-0.354-0.698c-0.046-0.093-0.091-0.187-0.138-0.277c-0.133-0.272-0.265-0.545-0.39-0.825
		c-0.023-0.051-0.045-0.096-0.066-0.146c-0.153-0.329-0.297-0.663-0.439-0.999c-0.023-0.06-0.047-0.114-0.071-0.175
		c-0.113-0.271-0.223-0.543-0.33-0.82c-0.041-0.105-0.08-0.206-0.117-0.311c-0.09-0.234-0.179-0.476-0.264-0.711
		c-0.04-0.113-0.08-0.223-0.117-0.332c-0.087-0.248-0.168-0.496-0.25-0.746c-0.03-0.099-0.064-0.195-0.092-0.289
		c-0.216-0.688-0.416-1.392-0.595-2.092c-0.026-0.107-0.051-0.207-0.076-0.312c-0.062-0.252-0.121-0.498-0.177-0.753
		c-0.028-0.12-0.056-0.249-0.083-0.371c-0.05-0.243-0.1-0.483-0.148-0.726c-0.023-0.119-0.047-0.246-0.068-0.364
		c-0.052-0.277-0.099-0.56-0.144-0.837c-0.013-0.082-0.029-0.166-0.043-0.25c-0.056-0.363-0.107-0.729-0.153-1.092
		c-0.013-0.084-0.021-0.172-0.029-0.256c-0.034-0.283-0.066-0.564-0.092-0.846c-0.012-0.126-0.023-0.253-0.034-0.386
		c-0.023-0.248-0.04-0.49-0.06-0.746c-0.009-0.129-0.019-0.265-0.024-0.397c-0.016-0.257-0.026-0.519-0.037-0.774
		c-0.003-0.114-0.011-0.239-0.016-0.354c-0.01-0.38-0.019-0.751-0.019-1.13c0-0.377,0.008-0.753,0.019-1.126
		c0.003-0.116,0.01-0.24,0.016-0.357c0.007-0.256,0.023-0.516,0.037-0.773c0.006-0.135,0.017-0.271,0.024-0.405
		c0.02-0.246,0.037-0.494,0.06-0.742c0.013-0.128,0.023-0.255,0.034-0.386c0.026-0.282,0.059-0.564,0.092-0.844
		c0.009-0.085,0.02-0.174,0.029-0.258c0.046-0.365,0.097-0.73,0.153-1.092c0.013-0.084,0.028-0.167,0.043-0.251
		c0.045-0.278,0.092-0.557,0.144-0.834c0.023-0.12,0.046-0.242,0.068-0.365c0.048-0.243,0.095-0.483,0.148-0.726
		c0.024-0.125,0.052-0.248,0.083-0.372c0.054-0.251,0.114-0.501,0.177-0.753c0.024-0.103,0.048-0.208,0.076-0.312
		c0.18-0.707,0.379-1.402,0.595-2.09c0.03-0.096,0.064-0.195,0.092-0.288c0.082-0.25,0.164-0.5,0.25-0.745
		c0.04-0.111,0.078-0.223,0.117-0.335c0.086-0.239,0.175-0.476,0.264-0.712c0.038-0.104,0.077-0.206,0.117-0.31
		c0.107-0.276,0.218-0.55,0.33-0.822c0.024-0.06,0.047-0.114,0.07-0.172c0.142-0.337,0.288-0.67,0.438-1.002
		c0.023-0.047,0.045-0.097,0.067-0.145c0.127-0.277,0.256-0.551,0.39-0.826c0.045-0.091,0.091-0.183,0.136-0.273
		c0.118-0.234,0.236-0.468,0.356-0.7c0.048-0.093,0.103-0.188,0.15-0.28c0.129-0.242,0.264-0.485,0.398-0.726
		c0.042-0.069,0.08-0.142,0.119-0.211c0.359-0.63,0.735-1.249,1.127-1.851c0.041-0.064,0.08-0.123,0.118-0.182
		c0.157-0.241,0.318-0.479,0.48-0.713c0.051-0.08,0.107-0.157,0.16-0.235c0.159-0.227,0.32-0.449,0.479-0.671
		c0.052-0.068,0.103-0.139,0.153-0.207c0.194-0.263,0.392-0.525,0.594-0.781c0.018-0.023,0.031-0.044,0.048-0.067
		c0.23-0.295,0.463-0.586,0.702-0.872c0.009-0.012,0.022-0.023,0.029-0.035c0.219-0.262,0.439-0.523,0.663-0.776
		c0.051-0.061,0.105-0.117,0.157-0.176c0.189-0.211,0.381-0.423,0.573-0.63c0.06-0.064,0.115-0.125,0.174-0.19
		c0.205-0.216,0.411-0.431,0.62-0.644c0.044-0.042,0.083-0.085,0.128-0.129c0.514-0.52,1.043-1.025,1.583-1.511
		c0.042-0.038,0.083-0.072,0.123-0.111c0.226-0.202,0.454-0.4,0.685-0.598c0.065-0.052,0.128-0.109,0.191-0.16
		c0.217-0.184,0.44-0.367,0.663-0.547c0.06-0.048,0.118-0.096,0.181-0.144c0.263-0.209,0.53-0.419,0.798-0.62
		c0.015-0.015,0.032-0.023,0.047-0.037c0.299-0.227,0.604-0.447,0.91-0.662c0.001-0.001,0.002-0.003,0.004-0.005
		c0.003-0.003,0.006-0.005,0.01-0.006c1.917-1.356,3.962-2.542,6.112-3.539c0.001,0,0.001-0.001,0.002-0.001l-3.552-6.15
		c-2.136,1.027-4.182,2.216-6.123,3.55C21.937,30.365,14,44.277,14,60.003c0,15.726,7.937,29.64,20.013,37.937
		c1.939,1.334,3.987,2.521,6.122,3.55l3.552-6.151l0,0C41.532,94.339,39.481,93.152,37.563,91.788z"/>
	<path d="M85.988,22.07c-1.939-1.334-3.985-2.524-6.122-3.551l-3.552,6.153c2.158,0.998,4.205,2.188,6.129,3.546
		c9.963,7.052,16.482,18.671,16.482,31.785c0,13.114-6.521,24.729-16.486,31.785l-7.127-12.345l-5.308-9.184l0,0l-5.92-10.258
		L60,52.927l-4.085,7.076l-5.824,10.09c1.687,1.66,3.784,2.896,6.123,3.546l3.788-6.558l6.167,10.68l5.009,8.679l0,0l5.139,8.899
		l3.549,6.149c2.137-1.026,4.183-2.217,6.121-3.551C98.062,89.641,106,75.729,106,60.003C106,44.277,98.062,30.365,85.988,22.07z"/>
	<path d="M60,88.312c-15.608,0-28.308-12.701-28.308-28.31h-7.077c0,19.511,15.876,35.39,35.387,35.39
		c3.915,0,7.688-0.642,11.208-1.822l-3.635-6.293C65.162,87.945,62.624,88.312,60,88.312z"/>
	<path d="M95.369,58.988c-0.002-0.075-0.006-0.151-0.01-0.225c-0.012-0.276-0.021-0.551-0.039-0.828
		c-0.002-0.057-0.008-0.114-0.012-0.172c-0.021-0.319-0.043-0.638-0.072-0.959c0-0.002,0-0.004,0-0.004
		C94.303,46.561,88.9,37.123,80.395,31.102c-1.75-1.237-3.625-2.321-5.566-3.222l-0.346-0.16c-4.422-1.99-9.326-3.102-14.482-3.102
		v7.078c15.611,0,28.307,12.7,28.307,28.307c0,7.897-3.252,15.042-8.482,20.187l3.63,6.283C90.732,80.009,95.089,70.79,95.37,61.02
		c0.002-0.024,0.002-0.049,0.004-0.071c0.011-0.31,0.017-0.625,0.017-0.939C95.389,59.663,95.378,59.325,95.369,58.988z"/>
	<path d="M60,77.695c-9.757,0-17.692-7.938-17.692-17.692H35.23c0,13.657,11.112,24.769,24.77,24.769
		c1.977,0,3.898-0.239,5.734-0.68l-3.764-6.511C61.328,77.654,60.668,77.695,60,77.695z"/>
	<path d="M60,35.233v7.077c9.755,0,17.693,7.935,17.693,17.692c0,3.93-1.291,7.557-3.461,10.497l3.754,6.505
		c4.201-4.441,6.781-10.426,6.781-17C84.766,46.346,73.658,35.233,60,35.233z"/>
</g>
</svg>
