<?xml version="1.0" encoding="utf-8"?>
<!-- Generator: Adobe Illustrator 16.0.0, SVG Export Plug-In . SVG Version: 6.00 Build 0)  -->
<!DOCTYPE svg PUBLIC "-//W3C//DTD SVG 1.1//EN" "http://www.w3.org/Graphics/SVG/1.1/DTD/svg11.dtd">
<svg version="1.1" id="Layer_1" xmlns="http://www.w3.org/2000/svg" xmlns:xlink="http://www.w3.org/1999/xlink" x="0px" y="0px"
	 width="120px" height="120px" viewBox="0 0 120 120" enable-background="new 0 0 120 120" xml:space="preserve">
<g>
	<path fill="#FFFFFF" d="M91.309,76.189h-4.021l2.844-2.844l5.838-5.842l-0.152-0.377c-1.703-3.257-3.803-6.273-6.238-8.985
		L76.314,71.404l-0.731,0.734c-2.251,2.531-2.998,6.223-1.614,9.569c1.385,3.339,4.52,5.421,7.901,5.62h1.046l17.846,0.004H111
		c0-3.821-0.393-7.545-1.139-11.143H99.326H91.309L91.309,76.189z"/>
	<path fill="#FFFFFF" d="M77.648,49.531l-5.666,5.667l-2.846,2.844V54.02v-8.26l-0.375-0.156c-3.51-1.102-7.127-1.748-10.765-1.942
		v18.757v1.037c0.199,3.387,2.281,6.526,5.625,7.905c3.343,1.386,7.032,0.643,9.565-1.608l0.737-0.741l12.62-12.618l8.078-8.081
		c-2.668-2.618-5.598-4.968-8.755-7l-0.562,0.561L77.648,49.531z"/>
	<path fill="#FFFFFF" d="M43.473,46.003v8.016v4.022l-2.845-2.845l-5.84-5.84l-0.377,0.157c-3.257,1.702-6.274,3.803-8.985,6.237
		l13.262,13.264l0.733,0.732c2.534,2.251,6.227,2.997,9.568,1.613c3.341-1.383,5.424-4.521,5.624-7.903v-1.044V44.567V32.666
		c-3.826,0.115-7.552,0.625-11.141,1.487v1.018L43.473,46.003z"/>
	<path fill="#FFFFFF" d="M16.812,67.676l5.669,5.67l2.844,2.844h-4.023l-8.26,0.002l-0.157,0.375
		c-1.099,3.51-1.747,7.125-1.942,10.768l18.755,0.002l1.04-0.002c3.384-0.199,6.524-2.281,7.907-5.624
		c1.384-3.345,0.639-7.034-1.613-9.563l-0.739-0.742L23.676,58.785l-8.03-8.03c-2.516,2.791-4.745,5.843-6.646,9.11l0.153,0.156
		L16.812,67.676z"/>
</g>
</svg>
