<?xml version="1.0" encoding="utf-8"?>
<!-- Generator: Adobe Illustrator 16.0.0, SVG Export Plug-In . SVG Version: 6.00 Build 0)  -->
<!DOCTYPE svg PUBLIC "-//W3C//DTD SVG 1.1//EN" "http://www.w3.org/Graphics/SVG/1.1/DTD/svg11.dtd">
<svg version="1.1" id="Layer_1" xmlns="http://www.w3.org/2000/svg" xmlns:xlink="http://www.w3.org/1999/xlink" x="0px" y="0px"
	 width="120px" height="120px" viewBox="0 0 120 120" enable-background="new 0 0 120 120" xml:space="preserve">
<path fill="#FFFFFF" d="M107.359,21.75H76.393v7.288H96.43v36.429c0,4.756-3.043,8.807-7.287,10.307V36.321h-7.287V75.77
	c-4.242-1.502-7.289-5.547-7.289-10.307v-7.286h-7.289v7.286c0,8.646,6.025,15.875,14.104,17.743
	c-1.359,4.487-5.525,7.757-10.46,7.757c-6.034,0-10.927-4.889-10.927-10.93V36.321h-7.288v43.714
	c0,6.035-4.892,10.928-10.929,10.928c-4.933,0-9.1-3.268-10.459-7.757c8.079-1.865,14.103-9.097,14.103-17.743V29.038h7.287V21.75
	h-34.6v7.288h20.037v36.429c0,4.756-3.042,8.807-7.287,10.307V36.321H23.57V75.77c-4.245-1.502-7.287-5.547-7.287-10.307v-7.286H9
	v7.286c0,8.921,6.416,16.338,14.88,17.906c1.569,8.467,8.986,14.882,17.907,14.882c5.958,0,11.247-2.866,14.571-7.288
	c3.321,4.422,8.613,7.288,14.57,7.288c8.922,0,16.342-6.415,17.905-14.882c8.469-1.568,14.882-8.985,14.882-17.906V29.038h3.646H111
	V21.75H107.359z"/>
</svg>
