<?xml version="1.0" encoding="utf-8"?>
<!-- Generator: Adobe Illustrator 19.2.1, SVG Export Plug-In . SVG Version: 6.00 Build 0)  -->
<svg version="1.1" id="Layer_1" xmlns="http://www.w3.org/2000/svg" xmlns:xlink="http://www.w3.org/1999/xlink" x="0px" y="0px"
	 viewBox="0 0 120 120" style="enable-background:new 0 0 120 120;" xml:space="preserve">
<polygon points="21,21 21,29.7 38.3,29.7 38.3,46.3 29.7,46.3 29.7,38.3 21,38.3 21,55.7 47,55.7 47,21 "/>
<polygon points="21,64.3 21,73 38.3,73 38.3,90.3 29.7,90.3 29.7,81.7 21,81.7 21,99 47,99 47,64.3 "/>
<polygon points="90.3,21 90.3,90.3 81.7,90.3 81.7,21 73,21 73,90.3 64.3,90.3 64.3,21 55.7,21 55.7,99 99,99 99,21 "/>
</svg>
