<?xml version="1.0" encoding="utf-8"?>
<!-- Generator: Adobe Illustrator 16.0.0, SVG Export Plug-In . SVG Version: 6.00 Build 0)  -->
<!DOCTYPE svg PUBLIC "-//W3C//DTD SVG 1.1//EN" "http://www.w3.org/Graphics/SVG/1.1/DTD/svg11.dtd">
<svg version="1.1" id="Layer_1" xmlns="http://www.w3.org/2000/svg" xmlns:xlink="http://www.w3.org/1999/xlink" x="0px" y="0px"
	 width="120px" height="120px" viewBox="0 0 120 120" enable-background="new 0 0 120 120" xml:space="preserve">
<g>
	<path d="M54.432,14.23L54.432,14.23c-0.081,0.007-0.158,0.015-0.235,0.021c-0.146,0.016-0.292,0.032-0.438,0.051
		c-0.25,0.026-0.505,0.058-0.755,0.091c-0.14,0.02-0.282,0.038-0.423,0.06c-0.255,0.034-0.511,0.073-0.765,0.11
		c-0.135,0.021-0.27,0.045-0.403,0.067c-0.259,0.043-0.516,0.088-0.776,0.136c-0.129,0.021-0.254,0.048-0.381,0.072
		c-0.263,0.048-0.527,0.104-0.79,0.16c-0.117,0.022-0.237,0.047-0.355,0.075c-0.27,0.06-0.539,0.122-0.809,0.185
		c-0.108,0.025-0.219,0.055-0.327,0.08c-0.277,0.068-0.556,0.139-0.832,0.214c-0.096,0.026-0.193,0.053-0.291,0.078
		c-0.288,0.08-0.573,0.159-0.857,0.247c-0.087,0.022-0.171,0.048-0.259,0.078c-0.297,0.088-0.588,0.181-0.882,0.273
		c-0.075,0.025-0.149,0.049-0.225,0.073c-0.302,0.102-0.608,0.203-0.91,0.313c-0.06,0.021-0.122,0.042-0.181,0.063
		c-0.319,0.113-0.634,0.229-0.95,0.351c-0.046,0.018-0.091,0.037-0.137,0.052c-0.331,0.128-0.661,0.26-0.992,0.396
		c-0.023,0.013-0.051,0.021-0.078,0.034c-0.352,0.146-0.701,0.297-1.045,0.451c-0.004,0.001-0.009,0.002-0.011,0.003v10.263
		c4.233-2.496,9.01-4.17,14.107-4.804v73.154c-1.674-0.208-3.312-0.526-4.909-0.954V73.215h-9.2v18.562v10.264
		c0.002,0.002,0.006,0.006,0.011,0.006c0.348,0.157,0.695,0.307,1.045,0.448c0.026,0.013,0.054,0.021,0.078,0.028
		c0.331,0.138,0.661,0.27,0.992,0.396c0.045,0.021,0.091,0.032,0.137,0.053c0.313,0.117,0.632,0.235,0.95,0.354
		c0.059,0.022,0.122,0.039,0.181,0.063c0.302,0.104,0.607,0.209,0.912,0.311c0.077,0.021,0.151,0.051,0.225,0.07
		c0.291,0.099,0.583,0.188,0.881,0.275c0.085,0.021,0.172,0.055,0.259,0.075c0.286,0.081,0.57,0.163,0.857,0.241
		c0.097,0.025,0.195,0.058,0.291,0.08c0.276,0.07,0.554,0.146,0.832,0.209c0.107,0.022,0.219,0.06,0.327,0.08
		c0.269,0.064,0.537,0.123,0.809,0.188c0.118,0.021,0.235,0.055,0.355,0.074c0.021,0.004,0.038,0.01,0.058,0.016l0,0
		c0.246,0.053,0.49,0.102,0.731,0.146c0.127,0.023,0.254,0.051,0.381,0.068c0.256,0.051,0.514,0.096,0.777,0.137
		c0.133,0.021,0.267,0.048,0.402,0.068c0.255,0.037,0.511,0.071,0.763,0.11c0.139,0.021,0.281,0.041,0.424,0.062
		c0.252,0.03,0.503,0.062,0.756,0.09c0.145,0.021,0.292,0.033,0.44,0.056c0.077,0.004,0.155,0.015,0.235,0.021v0.002
		c1.512,0.151,3.045,0.229,4.6,0.229c1.555,0,3.083-0.076,4.598-0.229v-9.188V23.419v-9.19c-1.512-0.148-3.046-0.227-4.598-0.227
		C57.479,14.002,55.944,14.081,54.432,14.23z"/>
	<path d="M28.671,25.451C22.888,30.536,18.392,37.05,15.733,44.44l8.789,2.57c1.062-2.818,2.466-5.47,4.148-7.911v41.814
		c-1.64-2.379-3.016-4.956-4.067-7.691h-9.642c2.504,8.362,7.32,15.721,13.708,21.34v0.002c2.79,2.451,5.877,4.571,9.2,6.302V90.194
		V29.81V19.15c-3.324,1.726-6.41,3.847-9.2,6.297v0.003L28.671,25.451L28.671,25.451z"/>
	<path d="M105.018,58.79c-0.002-0.136-0.015-0.269-0.017-0.405c-0.015-0.267-0.021-0.535-0.03-0.799
		c-0.012-0.16-0.021-0.316-0.025-0.472c-0.021-0.244-0.026-0.485-0.049-0.728c-0.02-0.163-0.029-0.327-0.045-0.494
		c-0.021-0.232-0.039-0.464-0.062-0.696c-0.021-0.17-0.04-0.334-0.062-0.5c-0.023-0.227-0.054-0.452-0.082-0.678
		c-0.021-0.17-0.043-0.336-0.063-0.507c-0.032-0.222-0.063-0.444-0.103-0.666c-0.021-0.17-0.057-0.336-0.08-0.505
		c-0.035-0.22-0.072-0.44-0.114-0.66c-0.029-0.167-0.062-0.332-0.099-0.497c-0.043-0.221-0.084-0.439-0.129-0.658
		c-0.033-0.166-0.07-0.326-0.105-0.489c-0.053-0.219-0.1-0.436-0.15-0.654c-0.035-0.159-0.074-0.32-0.115-0.481
		c-0.059-0.218-0.109-0.438-0.162-0.655c-0.043-0.156-0.082-0.312-0.125-0.467c-0.062-0.219-0.123-0.439-0.188-0.66
		c-0.046-0.152-0.092-0.302-0.137-0.452c-0.065-0.221-0.138-0.444-0.205-0.662c-0.052-0.147-0.099-0.292-0.146-0.438
		c-0.074-0.222-0.15-0.446-0.229-0.667c-0.053-0.139-0.1-0.278-0.148-0.419c-0.08-0.228-0.164-0.452-0.25-0.679
		c-0.05-0.131-0.103-0.263-0.152-0.396c-0.09-0.23-0.184-0.461-0.271-0.689c-0.05-0.125-0.104-0.247-0.152-0.372
		c-0.1-0.234-0.201-0.469-0.301-0.705c-0.051-0.115-0.101-0.231-0.154-0.344c-0.104-0.245-0.215-0.485-0.33-0.725
		c-0.049-0.105-0.096-0.21-0.146-0.313c-0.118-0.25-0.244-0.5-0.364-0.751c-0.048-0.09-0.09-0.179-0.138-0.27
		c-0.134-0.267-0.271-0.526-0.411-0.789c-0.035-0.073-0.068-0.146-0.111-0.217c-0.154-0.285-0.312-0.568-0.474-0.851
		c-0.021-0.047-0.052-0.096-0.071-0.143c-0.186-0.319-0.367-0.635-0.562-0.947c-0.008-0.011-0.015-0.02-0.021-0.03
		c-1.393-2.307-2.984-4.482-4.748-6.501c-0.006-0.005-0.015-0.012-0.019-0.019c-0.243-0.278-0.491-0.556-0.745-0.83
		c-0.021-0.021-0.039-0.044-0.062-0.064c-0.232-0.255-0.473-0.511-0.719-0.764c-0.023-0.032-0.06-0.062-0.09-0.094
		c-0.229-0.24-0.466-0.479-0.705-0.714c-0.037-0.039-0.076-0.076-0.115-0.113c-0.231-0.228-0.465-0.452-0.702-0.676
		c-0.017-0.013-0.026-0.028-0.048-0.045l-6.229,6.678C91.426,39.85,95.9,49.399,95.9,60.001c0,2.85-0.321,5.62-0.938,8.285
		L83.648,40.767l-8.361,31.306V16.958c-2.938-1.107-6.014-1.93-9.2-2.418v81.65v9.271c0.313-0.05,0.629-0.104,0.942-0.156
		c0.184-0.027,0.363-0.064,0.546-0.102c0.129-0.021,0.254-0.053,0.379-0.073c0.233-0.046,0.47-0.092,0.696-0.14
		c0.037-0.012,0.07-0.021,0.103-0.023c0.271-0.061,0.534-0.113,0.806-0.179c2.135-0.499,4.217-1.146,6.229-1.938l9.231-34.564
		l8.92,21.676c2.4-2.801,4.477-5.893,6.156-9.21c0.189-0.373,0.369-0.743,0.549-1.124c0.021-0.05,0.047-0.098,0.066-0.146
		c0.159-0.332,0.307-0.67,0.457-1.008c0.021-0.062,0.057-0.119,0.079-0.183c0.147-0.347,0.296-0.69,0.435-1.037
		c0.021-0.046,0.041-0.092,0.059-0.138c0.48-1.19,0.912-2.407,1.289-3.646c0.021-0.066,0.039-0.139,0.059-0.201
		c0.104-0.334,0.198-0.668,0.292-1.004c0.026-0.104,0.06-0.207,0.084-0.31c0.081-0.304,0.158-0.617,0.236-0.929
		c0.026-0.109,0.059-0.224,0.079-0.332c0.074-0.316,0.147-0.637,0.218-0.961c0.021-0.102,0.044-0.191,0.063-0.291
		c0.086-0.396,0.164-0.799,0.236-1.209c0.002-0.019,0.005-0.026,0.012-0.039c0.07-0.43,0.147-0.855,0.211-1.289
		c0.016-0.086,0.021-0.174,0.035-0.262c0.047-0.334,0.094-0.662,0.135-0.998c0.018-0.145,0.025-0.28,0.05-0.422
		c0.026-0.283,0.062-0.57,0.088-0.854c0.015-0.158,0.024-0.312,0.044-0.477c0.021-0.276,0.042-0.554,0.061-0.828
		c0.018-0.156,0.023-0.312,0.029-0.479c0.018-0.294,0.027-0.59,0.04-0.888c0.006-0.138,0.013-0.272,0.017-0.409
		c0.021-0.436,0.021-0.869,0.021-1.301C105.037,59.597,105.023,59.191,105.018,58.79z"/>
</g>
</svg>
