<?xml version="1.0" encoding="utf-8"?>
<!-- Generator: Adobe Illustrator 16.0.0, SVG Export Plug-In . SVG Version: 6.00 Build 0)  -->
<!DOCTYPE svg PUBLIC "-//W3C//DTD SVG 1.1//EN" "http://www.w3.org/Graphics/SVG/1.1/DTD/svg11.dtd">
<svg version="1.1" id="Layer_1" xmlns="http://www.w3.org/2000/svg" xmlns:xlink="http://www.w3.org/1999/xlink" x="0px" y="0px"
	 width="120px" height="120px" viewBox="0 0 120 120" enable-background="new 0 0 120 120" xml:space="preserve">
<g>
	<path fill="#FFFFFF" d="M28.889,56.889v12.445c0,3.432,2.791,6.223,6.223,6.223c3.43,0,6.222-2.791,6.222-6.223V32H28.889V56.889z"
		/>
	<path fill="#FFFFFF" d="M16.444,69.334v-6.223H4v6.223C4,79.627,12.375,88,22.667,88c2.181,0,4.275-0.378,6.222-1.066
		C21.646,84.364,16.444,77.445,16.444,69.334z"/>
	<polygon fill="#FFFFFF" points="103.557,32 91.111,60 91.111,32 78.666,32 66.225,60 66.225,32 53.778,32 53.778,88 66.225,88 
		78.666,60 78.666,88 91.111,88 116,32 	"/>
</g>
</svg>
