<?xml version="1.0" encoding="utf-8"?>
<!-- Generator: Adobe Illustrator 16.0.0, SVG Export Plug-In . SVG Version: 6.00 Build 0)  -->
<!DOCTYPE svg PUBLIC "-//W3C//DTD SVG 1.1//EN" "http://www.w3.org/Graphics/SVG/1.1/DTD/svg11.dtd">
<svg version="1.1" id="Layer_1" xmlns="http://www.w3.org/2000/svg" xmlns:xlink="http://www.w3.org/1999/xlink" x="0px" y="0px"
	 width="120px" height="120px" viewBox="0 0 120 120" enable-background="new 0 0 120 120" xml:space="preserve">
<path fill="#FFFFFF" d="M97.95,24.733v42.934c0,10.78-8.771,19.549-19.554,19.549c-5.103,0-9.754-1.968-13.242-5.181
	c0.414-0.676,0.799-1.368,1.152-2.077c3.115,3.065,7.385,4.961,12.09,4.961c9.515,0,17.25-7.737,17.25-17.25V24.733H87.6v42.934
	c0,5.072-4.127,9.2-9.201,9.2c-5.07,0-9.198-4.129-9.198-9.2V24.733h-8.052v42.934c0,10.78-8.769,19.549-19.548,19.549
	c-5.105,0-9.757-1.968-13.243-5.181c0.412-0.676,0.796-1.368,1.151-2.077c3.115,3.065,7.385,4.961,12.091,4.961
	c9.512,0,17.25-7.737,17.25-17.25V24.733H50.8v42.934c0,5.072-4.128,9.2-9.2,9.2c-5.073,0-9.2-4.131-9.2-9.2V24.733H14v42.934
	c0,15.22,12.382,27.601,27.6,27.601c7.063,0,13.513-2.668,18.4-7.047c4.887,4.379,11.338,7.047,18.398,7.047
	C93.619,95.268,106,82.887,106,67.667V24.733H97.95z"/>
</svg>
