<?xml version="1.0" encoding="utf-8"?>
<!-- Generator: Adobe Illustrator 16.0.0, SVG Export Plug-In . SVG Version: 6.00 Build 0)  -->
<!DOCTYPE svg PUBLIC "-//W3C//DTD SVG 1.1//EN" "http://www.w3.org/Graphics/SVG/1.1/DTD/svg11.dtd">
<svg version="1.1" id="Layer_1" xmlns="http://www.w3.org/2000/svg" xmlns:xlink="http://www.w3.org/1999/xlink" x="0px" y="0px"
	 width="120px" height="120px" viewBox="0 0 120 120" enable-background="new 0 0 120 120" xml:space="preserve">
<g>
	<polygon fill="#FFFFFF" points="40.731,55.864 50.743,8 42.929,8 32.917,55.864 	"/>
	<polygon fill="#FFFFFF" points="61.83,81.834 71.843,33.97 64.027,33.971 54.017,81.834 	"/>
	<polygon fill="#FFFFFF" points="68.506,57.395 66.906,65.042 89.273,65.042 90.875,57.393 	"/>
	<polygon fill="#FFFFFF" points="110.375,83.363 110.375,91.012 110.375,91.012 111.973,83.363 	"/>
	<path fill="#FFFFFF" d="M61.512,83.363h-7.813h-7.614l0,0c-7.752,0-15.069,5.947-16.658,13.535
		c-0.814,3.894,0.048,7.762,2.363,10.615c2.316,2.852,5.928,4.485,9.906,4.485c0.232,0,0.462-0.005,0.693-0.019
		c7.493-0.34,14.426-6.151,15.966-13.518l1.238-5.923h-7.816l-0.911,4.358c-0.798,3.812-4.586,7.063-8.479,7.418
		c-0.231,0.021-0.462,0.029-0.693,0.029c-1.69,0-3.098-0.588-3.971-1.66c-0.871-1.07-1.158-2.571-0.812-4.224
		c0.845-4.041,5.045-7.454,9.17-7.454l6.015,0.002h7.814h50.464l1.544-7.648H61.512V83.363z"/>
	<path fill="#FFFFFF" d="M40.41,57.395L40.41,57.395h-7.813l0,0h-7.611l0,0c-7.752,0-15.071,5.944-16.657,13.535
		c-0.815,3.896,0.047,7.762,2.362,10.614c2.315,2.851,5.927,4.487,9.905,4.487h0.001c0.383,0,0.763-0.021,1.144-0.049
		c7.317-0.547,14.006-6.271,15.515-13.485l1.239-5.923h-7.814L29.77,70.93c-0.767,3.668-4.298,6.814-8.03,7.367
		c-0.38,0.059-0.762,0.087-1.144,0.087c-1.691-0.002-3.1-0.591-3.971-1.663c-0.87-1.068-1.157-2.57-0.812-4.222
		c0.846-4.041,5.045-7.453,9.171-7.452l6.013-0.001h7.813h17.153l1.599-7.65L40.41,57.395L40.41,57.395z"/>
</g>
</svg>
