<?xml version="1.0" encoding="utf-8"?>
<!-- Generator: Adobe Illustrator 16.0.0, SVG Export Plug-In . SVG Version: 6.00 Build 0)  -->
<!DOCTYPE svg PUBLIC "-//W3C//DTD SVG 1.1//EN" "http://www.w3.org/Graphics/SVG/1.1/DTD/svg11.dtd">
<svg version="1.1" id="Layer_1" xmlns="http://www.w3.org/2000/svg" xmlns:xlink="http://www.w3.org/1999/xlink" x="0px" y="0px"
	 width="120px" height="120px" viewBox="0 0 120 120" enable-background="new 0 0 120 120" xml:space="preserve">
<g>
	<path fill="#FFFFFF" d="M5.999,45.835v12.394h14.165c0.978,0,1.769,0.794,1.769,1.771c0,0.977-0.792,1.771-1.769,1.771H5.999v5.312
		c0,3.896,3.187,7.084,7.082,7.084h14.163c3.896,0,7.083-3.188,7.083-7.084V45.835H5.999z"/>
	<path fill="#FFFFFF" d="M37.868,45.835v12.394h14.165c0.978,0,1.771,0.794,1.771,1.771c0,0.977-0.793,1.771-1.771,1.771H37.868
		v5.312c0,3.896,3.188,7.084,7.082,7.084h14.165c3.895,0,7.083-3.188,7.083-7.084V45.835H37.868z"/>
	<path fill="#FFFFFF" d="M106.919,45.835h-5.313V60c0,0.977-0.791,1.771-1.771,1.771c-0.976,0-1.771-0.793-1.771-1.771V45.835
		h-12.39V60c0,0.977-0.794,1.771-1.772,1.771S82.131,60.979,82.131,60V45.835h-5.312h-7.084v21.246c0,3.896,3.188,7.082,7.084,7.082
		H90.98c0.302,0,0.598-0.021,0.886-0.065c0.292,0.037,0.586,0.065,0.887,0.065h14.164c3.892,0,7.082-3.188,7.082-7.082V45.835
		H106.919z"/>
</g>
</svg>
