<?xml version="1.0" encoding="utf-8"?>
<!-- Generator: Adobe Illustrator 16.0.0, SVG Export Plug-In . SVG Version: 6.00 Build 0)  -->
<!DOCTYPE svg PUBLIC "-//W3C//DTD SVG 1.1//EN" "http://www.w3.org/Graphics/SVG/1.1/DTD/svg11.dtd">
<svg version="1.1" id="Layer_1" xmlns="http://www.w3.org/2000/svg" xmlns:xlink="http://www.w3.org/1999/xlink" x="0px" y="0px"
	 width="120px" height="120px" viewBox="0 0 120 120" enable-background="new 0 0 120 120" xml:space="preserve">
<g>
	<path d="M86.809,64.165l-35,35l0,0l-9.999-9.998l0,0l35-35L70.142,47.5L35.143,82.502l0,0l-10-10.006l0,0l34.999-35l-6.667-6.666
		L15.14,69.164c-1.838,1.842-1.84,4.827-0.001,6.667l0.003,0.006l33.33,33.327l0.003,0.006c1.843,1.839,4.825,1.839,6.664-0.004
		l38.335-38.333L86.809,64.165z"/>
	<path d="M53.479,27.5l9.998,9.999l-35,34.999l6.666,6.669l38.332-38.333c1.842-1.84,1.842-4.823,0.004-6.664
		c-0.004,0-0.004,0-0.004,0v-0.001l-13.33-13.336l6.664-6.667L60.144,7.5L11.81,55.834l6.667,6.667L53.479,27.5z"/>
	<path d="M106.809,67.502L106.809,67.502c0,0,0-0.002-0.001-0.002L93.479,54.167l6.667-6.667l-6.667-6.666L45.142,89.167
		l6.669,6.667l35-35.002l9.998,10.003l-35.002,35l6.669,6.665l38.332-38.334C108.65,72.324,108.65,69.341,106.809,67.502z"/>
</g>
</svg>
