<?xml version="1.0" encoding="utf-8"?>
<!-- Generator: Adobe Illustrator 16.0.0, SVG Export Plug-In . SVG Version: 6.00 Build 0)  -->
<!DOCTYPE svg PUBLIC "-//W3C//DTD SVG 1.1//EN" "http://www.w3.org/Graphics/SVG/1.1/DTD/svg11.dtd">
<svg version="1.1" id="Layer_1" xmlns="http://www.w3.org/2000/svg" xmlns:xlink="http://www.w3.org/1999/xlink" x="0px" y="0px"
	 width="120px" height="120px" viewBox="0 0 120 120" enable-background="new 0 0 120 120" xml:space="preserve">
<g>
	<polygon fill="#FFFFFF" points="50.4,52 50.4,42.399 12,42.399 12,52 26.4,52 26.4,82.402 21.6,82.402 21.6,56.8 12,56.8 12,92 
		36,92 36,52 	"/>
	<polygon fill="#FFFFFF" points="12,28 12,37.599 55.199,37.599 55.199,82.402 50.4,82.402 50.4,56.8 40.801,56.8 40.801,92 
		64.8,92 64.8,37.599 108,37.599 108,28 	"/>
	<polygon fill="#FFFFFF" points="98.398,82.402 93.602,82.402 93.602,42.399 84,42.399 84,82.402 79.2,82.402 79.2,42.399 
		69.602,42.399 69.602,92 108,92 108,42.399 98.398,42.399 	"/>
</g>
</svg>
