<?xml version="1.0" encoding="utf-8"?>
<!-- Generator: Adobe Illustrator 16.0.0, SVG Export Plug-In . SVG Version: 6.00 Build 0)  -->
<!DOCTYPE svg PUBLIC "-//W3C//DTD SVG 1.1//EN" "http://www.w3.org/Graphics/SVG/1.1/DTD/svg11.dtd">
<svg version="1.1" id="Layer_1" xmlns="http://www.w3.org/2000/svg" xmlns:xlink="http://www.w3.org/1999/xlink" x="0px" y="0px"
	 width="120px" height="120px" viewBox="0 0 120 120" enable-background="new 0 0 120 120" xml:space="preserve">
<g>
	<g>
		<path d="M54.159,85.611c1.794-1.034,3.328-2.35,4.588-3.852c-2.277-3.223-3.572-7.118-3.572-11.182
			c0-3.371,0.896-6.704,2.592-9.644c1.616-2.794,3.816-5.069,6.544-6.759c0.318-0.196,0.66-0.394,1.018-0.586l9.173-5.295
			l-4.832-8.369l-8.991,5.19c-0.504,0.274-0.994,0.557-1.456,0.843c-4.041,2.503-7.438,6.009-9.825,10.145
			c-2.543,4.406-3.89,9.411-3.889,14.475c0,5.998,1.873,11.755,5.188,16.541C51.9,86.743,53.064,86.243,54.159,85.611z"/>
		<path d="M93.833,25.972v45.32c-0.111,3.181-0.979,6.201-2.581,8.975c-4.346,7.528-13.027,11.026-21.089,9.173
			c-2.202,2.887-4.921,5.375-8.062,7.363c6.212,2.954,13.196,3.607,19.915,1.808c7.481-2.005,13.734-6.802,17.608-13.511
			c2.384-4.132,3.723-8.827,3.871-13.577l0.005-51.131L93.833,25.972z"/>
	</g>
	<g>
		<path d="M69.084,53.746l-2.797,1.615c-0.331,0.179-0.639,0.356-0.915,0.528c-1.567,0.971-2.938,2.162-4.104,3.55
			c0.343,0.488,0.672,0.987,0.976,1.511c5.329,9.229,2.153,21.076-7.077,26.406c-5.966,3.443-13.382,3.441-19.355-0.009
			c-2.918-1.685-5.358-4.127-7.054-7.067c-1.613-2.795-2.483-5.838-2.583-9.046c-0.011-0.374-0.011-0.768,0-1.173V59.47h-9.664
			v10.38c-0.015,0.574-0.015,1.142,0.001,1.685c0.147,4.75,1.486,9.445,3.872,13.579c2.544,4.405,6.206,8.073,10.592,10.605l0,0
			c8.953,5.17,20.074,5.174,29.021,0.008c6.707-3.873,11.507-10.126,13.511-17.607c2.005-7.481,0.976-15.296-2.896-22.005
			C70.143,55.298,69.63,54.51,69.084,53.746z"/>
		<path d="M50.382,51.121c2.145-2.655,4.721-4.95,7.609-6.767L16.51,20.403v11.161L50.382,51.121z"/>
	</g>
</g>
</svg>
