<?xml version="1.0" encoding="utf-8"?>
<!-- Generator: Adobe Illustrator 16.0.0, SVG Export Plug-In . SVG Version: 6.00 Build 0)  -->
<!DOCTYPE svg PUBLIC "-//W3C//DTD SVG 1.1//EN" "http://www.w3.org/Graphics/SVG/1.1/DTD/svg11.dtd">
<svg version="1.1" id="Layer_1" xmlns="http://www.w3.org/2000/svg" xmlns:xlink="http://www.w3.org/1999/xlink" x="0px" y="0px"
	 width="120px" height="120px" viewBox="0 0 120 120" enable-background="new 0 0 120 120" xml:space="preserve">
<g>
	<rect x="28.846" y="84.23" width="39.808" height="6.922"/>
	<path d="M28.846,28.846v6.923H84.23v48.459h-5.191v6.924h5.191c3.824,0,6.921-3.1,6.921-6.924V28.846H28.846z"/>
	<polygon points="70.384,21.923 70.384,27.116 77.308,27.116 77.308,15 42.692,15 42.692,21.923 	"/>
	<rect x="70.384" y="37.5" width="6.924" height="31.152"/>
	<path d="M70.384,79.039v19.039H42.692v6.921h27.692c3.824,0,6.924-3.102,6.924-6.921V79.039H70.384z"/>
	<path d="M82.5,77.308v-6.924H63.461V42.692H56.54v27.692H21.923V42.692H15v27.692c0,3.824,3.101,6.924,6.923,6.924H82.5z"/>
	<path d="M98.078,42.692v27.692h-5.194v6.924h5.194c3.82,0,6.922-3.1,6.922-6.924V42.692H98.078z"/>
</g>
</svg>
