<?xml version="1.0" encoding="utf-8"?>
<!-- Generator: Adobe Illustrator 16.0.0, SVG Export Plug-In . SVG Version: 6.00 Build 0)  -->
<!DOCTYPE svg PUBLIC "-//W3C//DTD SVG 1.1//EN" "http://www.w3.org/Graphics/SVG/1.1/DTD/svg11.dtd">
<svg version="1.1" id="Layer_1" xmlns="http://www.w3.org/2000/svg" xmlns:xlink="http://www.w3.org/1999/xlink" x="0px" y="0px"
	 width="120px" height="120px" viewBox="0 0 120 120" enable-background="new 0 0 120 120" xml:space="preserve">
<path fill="#FFFFFF" d="M107.828,36.986L92.484,52.329V36.987h-7.67l-15.34,15.342V36.987h-7.672L46.46,52.329V36.987h-7.67
	L23.678,52.098V36.986h-7.672L4.5,48.493l3.835,3.835l7.671-7.67V60L4.5,71.504l11.506,11.51h7.672V60v-0.231l15.111-15.111V60
	L27.282,71.504l11.507,11.51h7.67V60L61.8,44.659v7.67V60h7.673l15.342-15.341V60h7.67l15.343-15.341h7.674v-7.672L107.828,36.986
	L107.828,36.986z M16.006,75.343l-3.837-3.837l3.837-3.834V75.343z M38.789,75.343l-3.835-3.837l3.835-3.834V75.343z"/>
</svg>
