<?xml version="1.0" encoding="utf-8"?>
<!-- Generator: Adobe Illustrator 16.0.0, SVG Export Plug-In . SVG Version: 6.00 Build 0)  -->
<!DOCTYPE svg PUBLIC "-//W3C//DTD SVG 1.1//EN" "http://www.w3.org/Graphics/SVG/1.1/DTD/svg11.dtd">
<svg version="1.1" id="Layer_1" xmlns="http://www.w3.org/2000/svg" xmlns:xlink="http://www.w3.org/1999/xlink" x="0px" y="0px"
	 width="120px" height="120px" viewBox="0 0 120 120" enable-background="new 0 0 120 120" xml:space="preserve">
<g>
	<path d="M39.871,21H21v12.581h25.161v6.291c0,3.474-2.816,6.29-6.29,6.29H21v12.581h18.871c10.422,0,18.871-8.449,18.871-18.871V21
		H39.871z"/>
	<path d="M80.129,21H61.258v12.581h25.161v6.291c0,3.474-2.815,6.29-6.29,6.29H61.258v12.581h18.871
		C90.551,58.742,99,50.293,99,39.871V21H80.129z"/>
	<path d="M61.258,80.129V61.258h12.581v25.161h6.29c3.475,0,6.29-2.815,6.29-6.29V61.258H99v18.871C99,90.551,90.551,99,80.129,99
		H61.258V80.129z"/>
	<path d="M21,80.129V61.258h12.581v25.161h6.291c3.474,0,6.29-2.815,6.29-6.29V61.258h12.581v18.871
		C58.742,90.551,50.293,99,39.871,99H21V80.129z"/>
</g>
</svg>
