<?xml version="1.0" encoding="utf-8"?>
<!-- Generator: Adobe Illustrator 16.0.0, SVG Export Plug-In . SVG Version: 6.00 Build 0)  -->
<!DOCTYPE svg PUBLIC "-//W3C//DTD SVG 1.1//EN" "http://www.w3.org/Graphics/SVG/1.1/DTD/svg11.dtd">
<svg version="1.1" id="Layer_1" xmlns="http://www.w3.org/2000/svg" xmlns:xlink="http://www.w3.org/1999/xlink" x="0px" y="0px"
	 width="120px" height="120px" viewBox="0 0 120 120" enable-background="new 0 0 120 120" xml:space="preserve">
<g>
	<path fill="#FFFFFF" d="M84.634,62.523v35.375c0,1.392-1.134,2.521-2.528,2.521h-5.682V84.63h-7.581v15.788h-5.686
		c-1.394,0-2.525-1.133-2.525-2.523V62.523h-7.581v35.375c0,5.567,4.535,10.102,10.11,10.102h18.946
		c5.576,0,10.108-4.533,10.108-10.102V62.523H84.634z"/>
	<g>
		<path fill="#FFFFFF" d="M65.688,72.631c0,1.395-1.137,2.526-2.528,2.526h-1.263v7.577h1.263c5.571,0,10.106-4.531,10.106-10.104
			V44.844h6.317v-7.578H40.42v7.576h25.27v27.791h-0.002V72.631z"/>
		<path fill="#FFFFFF" d="M51.789,75.158h-1.264c-1.392,0-2.527-1.135-2.527-2.527V62.523h-7.579V72.63
			c0,5.572,4.535,10.104,10.106,10.104h1.264V75.158L51.789,75.158z"/>
	</g>
	<g>
		<polygon fill="#FFFFFF" points="53.051,36 60.632,36 60.632,19.578 66.948,19.578 66.948,12 27.783,12 27.783,19.578 
			53.051,19.578 		"/>
		<path fill="#FFFFFF" d="M60.632,47.371v-1.265h-7.581v1.265c0,1.393-1.132,2.525-2.526,2.525H37.891
			c-1.394,0-2.525-1.133-2.525-2.525V37.262h-7.583v10.106c0,5.571,4.535,10.105,10.109,10.105h12.631
			C56.098,57.474,60.632,52.938,60.632,47.371z"/>
	</g>
</g>
</svg>
