<?xml version="1.0" encoding="utf-8"?>
<!-- Generator: Adobe Illustrator 16.0.0, SVG Export Plug-In . SVG Version: 6.00 Build 0)  -->
<!DOCTYPE svg PUBLIC "-//W3C//DTD SVG 1.1//EN" "http://www.w3.org/Graphics/SVG/1.1/DTD/svg11.dtd">
<svg version="1.1" id="Layer_1" xmlns="http://www.w3.org/2000/svg" xmlns:xlink="http://www.w3.org/1999/xlink" x="0px" y="0px"
	 width="120px" height="120px" viewBox="0 0 120 120" enable-background="new 0 0 120 120" xml:space="preserve">
<g>
	<polygon points="94.269,85.341 104.329,91.149 104.329,40.711 94.383,34.969 94.383,63.671 81.954,27.794 71.482,21.748 
		59.351,42.759 59.351,14.743 49.405,9 49.405,59.438 59.762,65.418 77.015,35.535 	"/>
	<polygon points="36.212,53.321 26.915,47.953 26.915,58.688 	"/>
	<polygon points="61.299,105.258 71.244,111 103.68,92.274 93.734,86.531 	"/>
	<polygon points="69.471,22.633 60.649,27.727 60.649,37.914 	"/>
	<polygon points="25.617,47.953 15.671,53.695 15.671,78.165 48.106,59.438 48.106,9 38.16,14.743 38.16,53.695 25.617,60.938 	"/>
	<polygon points="16.32,79.29 26.266,85.032 58.702,66.305 48.755,60.563 	"/>
	<polygon points="93.085,34.969 87.026,38.467 93.086,55.955 	"/>
	<polygon points="92.944,85.488 76.718,38.646 69.144,51.766 82.845,91.318 	"/>
	<polygon points="60.649,79.664 60.649,104.133 81.7,91.979 78.385,82.408 70.595,86.906 70.595,73.922 	"/>
	<polygon points="77.952,81.16 76.333,76.484 71.894,73.922 71.894,84.656 	"/>
</g>
</svg>
