<?xml version="1.0" encoding="utf-8"?>
<!-- Generator: Adobe Illustrator 16.0.0, SVG Export Plug-In . SVG Version: 6.00 Build 0)  -->
<!DOCTYPE svg PUBLIC "-//W3C//DTD SVG 1.1//EN" "http://www.w3.org/Graphics/SVG/1.1/DTD/svg11.dtd">
<svg version="1.1" id="Layer_1" xmlns="http://www.w3.org/2000/svg" xmlns:xlink="http://www.w3.org/1999/xlink" x="0px" y="0px"
	 width="120px" height="120px" viewBox="0 0 120 120" enable-background="new 0 0 120 120" xml:space="preserve">
<path d="M102.001,56.537L86,84.249h-8l16-27.712h-8L70.001,84.249H62l16-27.712H62l8.001-13.858H38l8-13.856H14l-4,6.928h24
	l-4,6.928H14L2,63.464h24l8-13.856h24l-4,6.929H38L26,77.32h24l8-13.856h8L54,84.249l-4,6.928h40l15.999-27.714h8L118,56.537
	H102.001z M22,56.537h-8l4-6.929h8L22,56.537z M46,70.393h-8l4-6.929h8L46,70.393z"/>
</svg>
