<?xml version="1.0" encoding="utf-8"?>
<!-- Generator: Adobe Illustrator 16.0.0, SVG Export Plug-In . SVG Version: 6.00 Build 0)  -->
<!DOCTYPE svg PUBLIC "-//W3C//DTD SVG 1.1//EN" "http://www.w3.org/Graphics/SVG/1.1/DTD/svg11.dtd">
<svg version="1.1" id="Layer_1" xmlns="http://www.w3.org/2000/svg" xmlns:xlink="http://www.w3.org/1999/xlink" x="0px" y="0px"
	 width="120px" height="120px" viewBox="0 0 120 120" enable-background="new 0 0 120 120" xml:space="preserve">
<g>
	<path d="M91.968,33.668v38.088c0,13.758-11.192,24.949-24.948,24.949c-1.351,0-2.711-0.111-4.045-0.328
		c-0.023-0.004-0.045-0.008-0.068-0.014l8.004,4.592l0.131,0.072c2.363,1.35,4.988,2.3,7.777,2.754
		c1.233,0.201,2.502,0.307,3.795,0.307C95.525,104.09,106,93.618,106,80.7V49.514v-7.797L91.968,33.668z"/>
	<path d="M60.779,15.91H45.187v7.797v31.187c0,0.375-0.027,0.742-0.079,1.102l-15.514-8.899H14v7.797
		c0,8.732,4.784,16.342,11.872,20.363c-0.001-0.004-0.002-0.004-0.003-0.004l0,0l13.854,7.948l0.13,0.074
		c2.963,1.688,6.328,2.748,9.92,2.998c0.545,0.037,1.096,0.061,1.651,0.061c12.917,0,23.389-10.473,23.389-23.389V31.756v-7.797
		L60.779,15.91z M59.415,54.893c0,12.145-9.88,22.026-22.025,22.026s-22.025-9.881-22.025-22.026V48.46H28.23v6.433
		c0,5.051,4.109,9.162,9.16,9.162c5.051,0,9.161-4.11,9.161-9.162V17.275h12.864V54.893z"/>
	<path d="M67.018,95.146c12.918,0,23.389-10.472,23.389-23.39V40.57v-7.797l-14.032-8.05v38.22c0,13.757-11.192,24.947-24.95,24.947
		c-0.572,0-1.165-0.022-1.76-0.063c-0.685-0.048-1.364-0.122-2.034-0.226l7.688,4.408l0.13,0.074
		c2.365,1.35,4.989,2.297,7.778,2.751C64.458,95.039,65.727,95.146,67.018,95.146z"/>
</g>
</svg>
