<?xml version="1.0" encoding="utf-8"?>
<!-- Generator: Adobe Illustrator 16.0.0, SVG Export Plug-In . SVG Version: 6.00 Build 0)  -->
<!DOCTYPE svg PUBLIC "-//W3C//DTD SVG 1.1//EN" "http://www.w3.org/Graphics/SVG/1.1/DTD/svg11.dtd">
<svg version="1.1" id="Layer_1" xmlns="http://www.w3.org/2000/svg" xmlns:xlink="http://www.w3.org/1999/xlink" x="0px" y="0px"
	 width="120px" height="120px" viewBox="0 0 120 120" enable-background="new 0 0 120 120" xml:space="preserve">
<g>
	<path fill="#FFFFFF" d="M63.5,15.5h6v-7h-19v7h6v41h-17V48h-7v9.008c0.003,3.579,2.919,6.492,6.5,6.492h18
		c3.584,0,6.5-2.916,6.5-6.5V15.5z"/>
	<path fill="#FFFFFF" d="M65,29.5v7h2.5v26.172l5.285,19.723C73.85,81.236,74.5,79.693,74.5,78V36.5h6v-7H65z"/>
	<path fill="#FFFFFF" d="M61.121,77.5H50.5V69h-7v9.008c0.003,3.579,2.919,6.492,6.5,6.492h12.996L61.121,77.5z"/>
	<path fill="#FFFFFF" d="M79.865,56.5v7h6.119l-9.908,36.977l-11.23-41.915C64.117,62.229,60.877,65,57,65h-3.571L52,70.333V76
		h5.729L60,67.523l0,0L71.783,111.5h8.588l12.861-48h5.633v-7H79.865z"/>
	<path fill="#FFFFFF" d="M50,86c-0.734,0-1.445-0.102-2.121-0.288l-3.956,14.765L33.929,63.18c-1.785-1.467-2.927-3.688-2.929-6.171
		V56.5h-9.866v7h5.634l12.862,48h8.586L55.049,86H50z"/>
</g>
</svg>
