<?xml version="1.0" encoding="utf-8"?>
<!-- Generator: Adobe Illustrator 16.0.0, SVG Export Plug-In . SVG Version: 6.00 Build 0)  -->
<!DOCTYPE svg PUBLIC "-//W3C//DTD SVG 1.1//EN" "http://www.w3.org/Graphics/SVG/1.1/DTD/svg11.dtd">
<svg version="1.1" id="Layer_1" xmlns="http://www.w3.org/2000/svg" xmlns:xlink="http://www.w3.org/1999/xlink" x="0px" y="0px"
	 width="120px" height="120px" viewBox="0 0 120 120" enable-background="new 0 0 120 120" xml:space="preserve">
<path d="M113.636,27.272c-1.381-0.017-2.982,0.802-3.748,1.958c-3.858,5.826-6.671,12.282-9.157,18.79
	c-2.571,6.733-4.807,13.588-7.355,20.329c-0.933,2.469-1.9,4.927-2.98,7.336c-0.022,0.049-0.045,0.099-0.066,0.147
	c-0.095-1.128-0.119-2.267-0.138-3.392c-0.047-2.821,0.042-5.645,0.157-8.463c0.255-6.203,0.748-12.403,0.652-18.616
	c-0.025-1.7-0.079-3.42-0.364-5.099c-0.179-1.052-0.396-2.237-1.257-2.961c-1.374-1.156-3.899-0.027-5.04,0.931
	c-1.207,1.015-2.109,2.237-2.899,3.594c-2.464,4.234-4.315,8.85-6.182,13.366c-2.24,5.421-4.354,10.892-6.587,16.315
	c0.236-1.527,0.492-3.05,0.73-4.562c1.062-6.705,2.205-13.397,3.287-20.099c0.206-1.276,0.416-2.551,0.64-3.824
	c0.047-0.272,0.097-0.543,0.146-0.815c0.005-0.028,0.017-0.088,0.026-0.146c0.019-0.091,0.035-0.183,0.053-0.274
	c0.098-0.512,0.201-1.023,0.31-1.533c0.283-1.325,0.594-2.638,0.808-3.977c0.137-0.852,0.263-1.759,0.118-2.619
	c-0.153-0.913-0.55-1.598-1.489-1.874c-1.311-0.384-2.862,0.225-4.004,0.823c-2.438,1.278-4.45,3.324-6.436,5.19
	c-3.963,3.725-7.982,7.39-12.018,11.036c-0.782,0.707-1.567,1.411-2.354,2.113c0.008-0.141,0.014-0.281,0.022-0.421
	c0.179-3.018,0.573-6.032,0.354-9.059c-0.103-1.431-0.297-3.496-1.633-4.374c-1.833-1.205-4.504,0.098-6.005,1.271
	c-2.031,1.586-3.877,3.47-5.72,5.266c-2.381,2.321-4.703,4.703-6.983,7.122c-0.46,0.488-0.916,0.981-1.37,1.475
	c-0.261-2.297-0.499-4.597-0.68-6.904c-0.362-4.591-0.575-9.203-0.502-13.81c0.024-1.469,0.05-2.952,0.208-4.414
	c0.147-1.37-2.105-1.018-2.768-0.787c-1.186,0.412-2.593,1.339-2.739,2.699c-0.168,1.553-0.19,3.131-0.212,4.691
	c-0.066,4.702,0.173,9.407,0.551,14.092c0.271,3.36,0.66,6.711,1.067,10.062c-0.417,0.462-0.836,0.923-1.257,1.382
	c-4.259,4.635-9.172,8.642-13.159,13.526c-1.294,1.585-2.481,3.357-2.648,5.453c-0.176,2.216,1.219,4.322,2.506,5.987
	c1.845,2.389,3.998,4.646,6.313,6.587c1.433,1.201,3.053,2.309,4.862,2.85c1.838,0.549,3.91,0.236,5.567-0.706
	c1.76-1.001,3.003-2.444,3.802-4.294c0.667-1.546,0.945-3.274,1.149-4.934c0.246-2.001,0.294-4.024,0.279-6.038
	c-0.036-4.81-0.494-9.613-1.027-14.39c-0.234-2.089-0.489-4.176-0.743-6.263c0.723-0.811,1.448-1.62,2.181-2.422
	c4.191-4.582,8.523-9.065,13.109-13.256c0.048,0.131,0.089,0.266,0.127,0.4c0.018,0.085,0.034,0.17,0.05,0.256
	c0.093,0.5,0.142,1.008,0.179,1.515c0.219,3.043-0.197,6.089-0.375,9.123c-0.066,1.109-0.111,2.219-0.142,3.33
	c-1.864,1.658-3.723,3.332-5.458,5.124c-2.014,2.08-4.694,4.968-3.483,8.101c0.407,1.052,1.132,2.038,1.695,3.01
	c1.098,1.894,2.189,3.792,3.276,5.692c1.054,1.844,2.106,3.69,3.135,5.548c0.439,0.794,0.861,1.597,1.288,2.396
	c0.407,0.762,0.861,1.919,1.604,2.435c1.358,0.943,3.458-0.25,4.454-1.172c0.561-0.517,0.848-1.178,0.868-1.927
	c0.033-1.243-0.231-2.521-0.382-3.75c-0.414-3.368-0.744-6.747-1-10.13c-0.392-5.184-0.616-10.396-0.53-15.6
	c0.262-0.231,0.524-0.462,0.786-0.693c2.344-2.069,4.668-4.16,6.984-6.259c3.808-3.452,7.609-6.916,11.342-10.448
	c0.564-0.533,1.136-1.06,1.719-1.572c0.031-0.027,0.081-0.07,0.131-0.112c0.022-0.02,0.046-0.039,0.068-0.058
	c-0.015,0.648-0.128,1.305-0.23,1.927c-0.007,0.036-0.033,0.184-0.047,0.258c-0.021,0.112-0.043,0.224-0.065,0.335
	c-0.069,0.343-0.145,0.685-0.221,1.026c-0.118,0.521-0.237,1.043-0.347,1.566c-0.244,1.181-0.459,2.369-0.666,3.557
	c-0.492,2.816-0.926,5.643-1.378,8.465c-1.046,6.532-2.219,13.044-3.173,19.591c-0.293,2.016-0.571,4.035-0.763,6.063
	c-0.105,1.116-0.227,2.271-0.112,3.392c0.038,0.374,0.087,0.809,0.289,1.131c0.466,0.747,1.452,0.862,2.248,0.677
	c1.826-0.427,3.186-1.538,4.14-3.111c1.909-3.149,3.251-6.698,4.657-10.086c2.476-5.972,4.79-12.008,7.271-17.978
	c1.044-2.51,2.111-5.011,3.259-7.477c0.355-0.765,0.723-1.525,1.103-2.28c0.03,0.321,0.056,0.643,0.078,0.965
	c0.147,2.223,0.129,4.457,0.087,6.683c-0.124,6.54-0.676,13.062-0.787,19.602c-0.039,2.254-0.041,4.517,0.13,6.766
	c0.102,1.338,0.233,2.802,0.769,4.047c0.663,1.537,2.36,1.579,3.77,1.096c1.753-0.604,3.058-1.951,4.027-3.482
	c1.025-1.62,1.833-3.395,2.604-5.147c1.103-2.506,2.089-5.062,3.049-7.625c2.541-6.786,4.789-13.679,7.404-20.438
	c1.161-3.001,2.404-5.972,3.793-8.876c0.323-0.676,0.658-1.347,0.999-2.014c0.011-0.022,0.125-0.243,0.17-0.329
	c0.074-0.141,0.149-0.282,0.224-0.422c0.19-0.356,0.385-0.708,0.58-1.061c0.772-1.39,1.601-2.75,2.479-4.075
	C115.372,28.256,114.89,27.287,113.636,27.272z M21.815,89.56C22.104,89.685,21.936,89.614,21.815,89.56L21.815,89.56z
	 M23.667,85.938c-0.027,0.208-0.058,0.415-0.09,0.622c-0.011,0.071-0.045,0.264-0.066,0.386c-0.068,0.348-0.146,0.693-0.235,1.036
	c-0.165,0.636-0.375,1.26-0.651,1.856c-0.247-0.067-0.489-0.152-0.728-0.246c-0.043-0.017-0.086-0.036-0.13-0.055h-0.001
	c-0.205-0.1-0.406-0.208-0.604-0.319c-1.956-1.102-3.642-2.685-5.21-4.271c-1.924-1.943-3.986-4.097-5.076-6.65
	c-0.09-0.211-0.166-0.428-0.235-0.646c-0.01-0.033-0.027-0.094-0.04-0.146c-0.009-0.048-0.018-0.096-0.026-0.143
	c-0.073-0.411-0.078-0.832-0.037-1.247c0.002-0.021,0.006-0.05,0.01-0.077c0.007-0.029,0.014-0.057,0.021-0.085
	c0.046-0.185,0.108-0.365,0.175-0.544c0.057-0.153,0.125-0.303,0.195-0.45c0.06-0.105,0.123-0.21,0.186-0.313
	c0.241-0.393,0.512-0.766,0.79-1.131c0.152-0.201,0.309-0.398,0.467-0.594c0.083-0.104,0.167-0.205,0.25-0.308
	c0.003-0.003,0.005-0.006,0.008-0.009c0.004-0.005,0.008-0.011,0.013-0.016c0.833-0.991,1.724-1.931,2.638-2.849
	c2.26-2.271,4.624-4.438,6.881-6.714c0.161-0.163,0.319-0.328,0.479-0.491c0.698,5.794,1.314,11.595,1.337,17.438
	C23.996,81.965,23.924,83.962,23.667,85.938z M40.853,69.333c-0.557-0.961-1.26-1.93-1.663-2.972
	c-0.026-0.067-0.049-0.136-0.07-0.205c-0.003-0.017-0.006-0.032-0.009-0.049c-0.037-0.23-0.04-0.464-0.022-0.695
	c0.001-0.022,0.005-0.044,0.008-0.065c0.016-0.062,0.034-0.123,0.053-0.184c0.046-0.151,0.219-0.514,0.272-0.637
	c0.104-0.17,0.213-0.337,0.326-0.5c0.101-0.146,0.207-0.286,0.313-0.427c0.049-0.065,0.149-0.19,0.232-0.291
	c0.604-0.7,1.25-1.362,1.907-2.012c0.201-0.198,0.404-0.394,0.607-0.591c0.005,0.707,0.014,1.414,0.028,2.122
	c0.072,3.636,0.267,7.271,0.549,10.897C42.543,72.259,41.7,70.795,40.853,69.333z"/>
</svg>
