<?xml version="1.0" encoding="utf-8"?>
<!-- Generator: Adobe Illustrator 16.0.0, SVG Export Plug-In . SVG Version: 6.00 Build 0)  -->
<!DOCTYPE svg PUBLIC "-//W3C//DTD SVG 1.1//EN" "http://www.w3.org/Graphics/SVG/1.1/DTD/svg11.dtd">
<svg version="1.1" id="Layer_1" xmlns="http://www.w3.org/2000/svg" xmlns:xlink="http://www.w3.org/1999/xlink" x="0px" y="0px"
	 width="120px" height="120px" viewBox="0 0 120 120" enable-background="new 0 0 120 120" xml:space="preserve">
<path fill="#FFFFFF" d="M99.908,22.5L83.98,81.95l-2.083-7.776L95.742,22.5h-8.334l-9.68,36.125L68.05,22.5h-8.418L43.702,81.95
	l-2.083-7.776L55.465,22.5h-8.333l-9.679,36.125L27.773,22.5H19.44l13.846,51.674l-1.784,6.66
	c-1.233,4.603-5.965,8.332-10.567,8.332h-6.945L11.756,97.5h6.945c6.912,0,13.969-4.208,18.099-10.202L39.535,97.5h8.333
	l15.973-59.609l9.721,36.283l-1.782,6.66c-1.234,4.603-5.965,8.332-10.567,8.332h-6.944L52.035,97.5h6.944
	c6.911,0,13.97-4.208,18.1-10.202L79.813,97.5h8.334l20.097-75H99.908z"/>
</svg>
