<?xml version="1.0" encoding="utf-8"?>
<!-- Generator: Adobe Illustrator 16.0.0, SVG Export Plug-In . SVG Version: 6.00 Build 0)  -->
<!DOCTYPE svg PUBLIC "-//W3C//DTD SVG 1.1//EN" "http://www.w3.org/Graphics/SVG/1.1/DTD/svg11.dtd">
<svg version="1.1" id="Layer_1" xmlns="http://www.w3.org/2000/svg" xmlns:xlink="http://www.w3.org/1999/xlink" x="0px" y="0px"
	 width="120px" height="120px" viewBox="0 0 120 120" enable-background="new 0 0 120 120" xml:space="preserve">
<path d="M99.909,22.5l-15.93,59.45l-2.083-7.776L95.743,22.5h-8.334l-9.68,36.125L68.052,22.5h-8.42L43.703,81.95l-2.083-7.776
	L55.465,22.5h-8.333l-9.679,36.125L27.772,22.5H19.44l13.846,51.674l-1.784,6.66c-1.234,4.603-5.965,8.332-10.567,8.332h-6.945
	L11.757,97.5h6.945c6.912,0,13.969-4.208,18.099-10.202L39.536,97.5h8.334l15.973-59.609l9.72,36.283l-1.783,6.66
	c-1.233,4.603-5.964,8.332-10.566,8.332h-6.944L52.035,97.5h6.944c6.912,0,13.97-4.208,18.099-10.202L79.812,97.5h8.334l20.097-75
	H99.909z"/>
</svg>
