<?xml version="1.0" encoding="utf-8"?>
<!-- Generator: Adobe Illustrator 19.2.1, SVG Export Plug-In . SVG Version: 6.00 Build 0)  -->
<svg version="1.1" id="Layer_1" xmlns="http://www.w3.org/2000/svg" xmlns:xlink="http://www.w3.org/1999/xlink" x="0px" y="0px"
	 viewBox="0 0 120 120" style="enable-background:new 0 0 120 120;" xml:space="preserve">
<g>
	<polygon points="110,30.2 115.6,30.2 112.8,27.4 	"/>
	<polygon points="107.8,22.4 104.8,19.4 90.5,19.4 93.5,22.4 	"/>
	<polygon points="107.8,15.5 93.5,15.5 90.5,18.5 104.8,18.5 	"/>
	<polygon points="112.8,26.1 116.7,30 120,26.8 108.9,15.7 105.7,19 109.6,22.9 81.6,50.9 69.2,38.5 77,30.7 73.8,27.4 62.7,38.5 
		81.6,57.4 	"/>
	<polygon points="66.1,57.6 80.5,57.6 61.9,39 47.5,39 	"/>
	<polygon points="81.6,49.6 107.8,23.3 93.5,23.3 74.4,42.4 	"/>
	<polygon points="53.6,46.3 46.4,39.2 31.3,54.3 31.3,57.6 34.9,57.6 38.6,61.3 	"/>
	<polygon points="83.7,83 98.1,83 74.2,59.2 74.2,73.5 	"/>
	<polygon points="60.3,83 74.6,83 50.8,59.2 50.8,73.5 	"/>
	<polygon points="74.9,58.5 100.3,83.9 83.3,83.9 58,58.5 51.4,58.5 76.8,83.9 59.9,83.9 34.5,58.5 28,58.5 58.3,88.8 111.7,88.8 
		81.4,58.5 	"/>
	<rect x="58.6" y="89.8" width="53.8" height="14.7"/>
	<polygon points="27.3,59.2 27.3,73.5 57.7,103.8 57.7,89.5 	"/>
	<polygon points="30.3,57.6 30.3,54.6 0,54.6 0,69.3 26.4,69.3 26.4,57.6 	"/>
	<polygon points="58,26.3 65.8,26.3 70.7,21.4 48.6,21.4 43.6,26.3 51.4,26.3 29,48.7 12.1,48.7 21.9,39 15.4,39 0.7,53.7 
		30.6,53.7 	"/>
	<polygon points="49.2,27.3 43,27.3 43,33.5 	"/>
	<polygon points="47.5,38 61.9,38 72.7,27.3 58.3,27.3 	"/>
	<polygon points="71.4,22 67.1,26.3 71.4,26.3 	"/>
	<polygon points="22.5,39.6 14.3,47.8 22.5,47.8 	"/>
</g>
</svg>
