<?xml version="1.0" encoding="utf-8"?>
<!-- Generator: Adobe Illustrator 19.2.1, SVG Export Plug-In . SVG Version: 6.00 Build 0)  -->
<svg version="1.1" id="Layer_1" xmlns="http://www.w3.org/2000/svg" xmlns:xlink="http://www.w3.org/1999/xlink" x="0px" y="0px"
	 viewBox="0 0 120 120" style="enable-background:new 0 0 120 120;" xml:space="preserve">
<path d="M114.9,32l0.2,0.2l4.5-4.5l-11.9-11.9H92L87.7,20l3.8,3.8L73.2,42.2l-3.1-3.1l7.6-7.6l-4.3-4.3h-1.6v-5.7H48.3l-6,6v7.6
	l-13,13h-5v-9.5h-8.3L0.4,54.1V70H27v3.5l30.7,30.7h54V88.3L81.5,58.1L107.7,32H114.9z M108.7,31l2.6-2.6l2.6,2.6H108.7z M92.5,16.7
	h13.8l-2.8,2.8H89.7L92.5,16.7z M92.5,23.3l-2.8-2.8h13.8l2.8,2.8H92.5z M92.5,24.3h13.8L80.8,49.8l-6.9-6.9L92.5,24.3z M68.7,39.1
	l12.1,12.1l27.4-27.4l-3.8-3.8l3.1-3.1l10.7,10.7l-3.1,3.1l-3.8-3.8L80.8,57.4L62.5,39.1l10.7-10.7l3.1,3.1L68.7,39.1z M58.2,88
	L28.7,58.6h6.2l24.7,24.7h16.6L51.6,58.6h6.2l24.7,24.7h16.6L74.4,58.6h6.2L110.1,88H58.2z M31.8,54.5l14.7-14.7l6.9,6.9L39,61.2
	l-3.6-3.6h-3.5V54.5z M72,28.1L61.6,38.6H47.8l10.4-10.4H72z M50.9,59.3l23,23H60.1l-9.2-9.2V59.3z M49.9,57.6v14.5L39.7,61.9
	l14.5-14.5l11.2,11.2h7.3v13.5L58.2,57.6H49.9z M73.7,59.3l23,23H82.9l-9.2-9.2V59.3z M65.8,57.6l-18-18h13.8l18,18H65.8z
	 M66.8,27.1l4-4v4H66.8z M43.3,28.1h5.9l-5.9,5.9V28.1z M15.4,48.1l7.8-7.8v7.8H15.4z M16.3,39.6h6.2L13,49.1h16.6l21.9-21.9H44
	l4.7-4.7h21.4l-4.7,4.7h-7.6L31.1,53.8h-29L16.3,39.6z M1.4,69V54.8h29.5v2.8H27V69H1.4z M28,59.3l29.5,29.5v13.8L28,73.1V59.3z
	 M58.5,103.3V89h52.3v14.2H58.5z"/>
</svg>
