<?xml version="1.0" encoding="utf-8"?>
<!-- Generator: Adobe Illustrator 19.2.1, SVG Export Plug-In . SVG Version: 6.00 Build 0)  -->
<svg version="1.1" id="Layer_1" xmlns="http://www.w3.org/2000/svg" xmlns:xlink="http://www.w3.org/1999/xlink" x="0px" y="0px"
	 viewBox="0 0 120 120" style="enable-background:new 0 0 120 120;" xml:space="preserve">
<path d="M102.2,38h11.2l6.1-6.1l-17.4-17.4H90.6L85,20.2H51.3l-8.7,8.7v11.2L32.3,50.4V39.8H20.4l-20,20v11.9h22.8l33.7,33.7h56.9
	V93.5L80.3,60L102.2,38z M23.9,61.2l32.7,32.7v9.8L23.9,71V61.2z M57.3,93.2L24.6,60.5h9.8l25.3,25.3h12.7L47.1,60.5h9.8l25.3,25.3
	h12.7L69.5,60.5h9.8l32.7,32.7H57.3z M96.2,21.2l4.6,4.6H91l-4.6-4.6H96.2z M91,26.8h9.8L79.6,48.1l-4.9-4.9L91,26.8z M85.7,30.7
	v-8.8l4.4,4.4L85.7,30.7z M84.7,31.7L82.4,34l-4.9-4.9l7.2-7.2V31.7z M40.9,65.6l4.4-4.4V70L40.9,65.6z M46.3,61.2l23.6,23.6h-9.8
	L46.3,71V61.2z M67.8,60.2V70L57.3,59.5H47.1l10-10L67.8,60.2z M68.8,61.2l23.6,23.6h-9.8L68.8,71V61.2z M68.5,59.5L52.7,43.6h9.8
	l15.9,15.9H68.5z M62.5,42.6h-9.8l13-13h9.8L62.5,42.6z M51.5,43.8l4.9,4.9L40.2,64.9L35.3,60L51.5,43.8z M103.2,37l4.4-4.4l4.4,4.4
	H103.2z M113.3,36.8l-5.6-5.6L79.6,59.3L63.4,43.1l13.3-13.3l4.9,4.9l-8.4,8.4l6.3,6.3l23.2-23.2l-5.6-5.6l4.9-4.9l16.2,16.1
	L113.3,36.8z M91,15.5h9.8l-4.6,4.6h-9.8L91,15.5z M43.5,29.6h9.5l-9.5,9.5V29.6z M21.8,51.1l9.5-9.5v9.5H21.8z M20.8,40.8h9.8
	L19.4,52.1H32l23.5-23.5H44.2l7.4-7.4H84l-7.4,7.4H65.3L34.4,59.5H2.1L20.8,40.8z M1.4,60.5h21.5v10.2H1.4V60.5z M57.6,104.5V94.2
	h55.2v10.2H57.6z"/>
</svg>
