<?xml version="1.0" encoding="utf-8"?>
<!-- Generator: Adobe Illustrator 19.2.1, SVG Export Plug-In . SVG Version: 6.00 Build 0)  -->
<svg version="1.1" id="Layer_1" xmlns="http://www.w3.org/2000/svg" xmlns:xlink="http://www.w3.org/1999/xlink" x="0px" y="0px"
	 viewBox="0 0 120 120" style="enable-background:new 0 0 120 120;" xml:space="preserve">
<style type="text/css">
	.st0{fill:#FFFFFF;}
</style>
<path class="st0" d="M113.9,31l0.2,0.2l4.5-4.5l-11.9-11.9H91L86.7,19l3.8,3.8L72.2,41.2l-3.1-3.1l7.6-7.6l-4.3-4.3h-1.6v-5.7H47.3
	l-6,6v7.6l-13,13h-5v-9.5h-8.3L-0.6,53.1V69H26v3.5l30.7,30.7h54V87.3L80.5,57.1L106.7,31H113.9z M107.7,30l2.6-2.6l2.6,2.6H107.7z
	 M91.5,15.7h13.8l-2.8,2.8H88.7L91.5,15.7z M91.5,22.3l-2.8-2.8h13.8l2.8,2.8H91.5z M91.5,23.3h13.8L79.8,48.8l-6.9-6.9L91.5,23.3z
	 M67.7,38.1l12.1,12.1l27.4-27.4l-3.8-3.8l3.1-3.1l10.7,10.7l-3.1,3.1l-3.8-3.8L79.8,56.4L61.5,38.1l10.7-10.7l3.1,3.1L67.7,38.1z
	 M57.2,87L27.7,57.6h6.2l24.7,24.7h16.6L50.6,57.6h6.2l24.7,24.7h16.6L73.4,57.6h6.2L109.1,87H57.2z M30.8,53.5l14.7-14.7l6.9,6.9
	L38,60.2l-3.6-3.6h-3.5V53.5z M71,27.1L60.6,37.6H46.8l10.4-10.4H71z M49.9,58.3l23,23H59.1l-9.2-9.2V58.3z M48.9,56.6v14.5
	L38.7,60.9l14.5-14.5l11.2,11.2h7.3v13.5L57.2,56.6H48.9z M72.7,58.3l23,23H81.9l-9.2-9.2V58.3z M64.8,56.6l-18-18h13.8l18,18H64.8z
	 M65.8,26.1l4-4v4H65.8z M42.3,27.1h5.9l-5.9,5.9V27.1z M14.4,47.1l7.8-7.8v7.8H14.4z M15.3,38.6h6.2L12,48.1h16.6l21.9-21.9H43
	l4.7-4.7h21.4l-4.7,4.7h-7.6L30.1,52.8h-29L15.3,38.6z M0.4,68V53.8h29.5v2.8H26V68H0.4z M27,58.3l29.5,29.5v13.8L27,72.1V58.3z
	 M57.5,102.3V88h52.3v14.2H57.5z"/>
</svg>
