<?xml version="1.0" encoding="utf-8"?>
<!-- Generator: Adobe Illustrator 19.2.1, SVG Export Plug-In . SVG Version: 6.00 Build 0)  -->
<svg version="1.1" id="Layer_1" xmlns="http://www.w3.org/2000/svg" xmlns:xlink="http://www.w3.org/1999/xlink" x="0px" y="0px"
	 viewBox="0 0 120 120" style="enable-background:new 0 0 120 120;" xml:space="preserve">
<style type="text/css">
	.st0{fill:#FFFFFF;}
</style>
<g>
	<path class="st0" d="M34,57.3c4,0,4.9-2.8,5.2-4c0.4-2,0.4-4.9,0.4-7.4V16.7l0,0L21.2,35.1v13.8h7.2C28.6,54,29.8,57.3,34,57.3z"/>
	<path class="st0" d="M97.7,27.9l-9.3,36.3H76.8L65.2,16.7L50,31.9v14c0,7.3-1.4,13.1-7.4,16.8c-1.8,1.1-4.6,2-9.2,2
		c-5.1,0-9.4-1.1-12.4-5.8c-2.3-3.5-2.4-7.6-2.5-10.1L0,67.3c0.1,2.4,0.2,6.6,2.5,10.1c3,4.7,7.3,5.8,12.4,5.8
		c2.4,0,4.3-0.2,5.8-0.6l-4.9,4.9c0.1,2.4,0.2,6.6,2.5,10.1c3,4.7,7.3,5.8,12.4,5.8c4.6,0,7.4-0.9,9.2-2c1.1-0.7,2-1.4,2.8-2.2
		c0.9-0.9,11.7-11.7,16.4-16.4H70l0,0l0,0l14.5-14.5l3.4,14.5h11.3l18.4-18.4h-11.3L97.7,27.9z M65.9,66c0,7.3-1.4,13.1-7.4,16.8
		c-1.8,1.1-4.6,2-9.2,2c-5.1,0-9.4-1.1-12.4-5.8c-2.3-3.5-2.4-7.6-2.5-10.1h10c0.1,5.1,1.4,8.4,5.6,8.4c4,0,4.9-2.8,5.2-4
		c0.4-2,0.4-4.9,0.4-7.4V36.8h10.3V66z"/>
	<polygon class="st0" points="92.4,16.7 92.4,16.7 78.6,30.5 83.1,52.3 	"/>
	<polygon class="st0" points="107,29.7 112.3,52.3 120,16.7 120,16.7 	"/>
</g>
</svg>
